<svg width="59" height="59" viewBox="0 0 59 59" fill="none" xmlns="http://www.w3.org/2000/svg">
<g clip-path="url(#clip0)">
<mask id="path-1-outside-1" maskUnits="userSpaceOnUse" x="-0.966797" y="-0.984375" width="61" height="61" fill="black">
<rect fill="white" x="-0.966797" y="-0.984375" width="61" height="61"/>
<path d="M57.2068 19.3736C57.1333 19.1728 56.9831 19.0094 56.7891 18.9194C56.5951 18.8293 56.3734 18.8199 56.1725 18.8933L49.6733 21.2681C49.5736 21.3043 49.482 21.3599 49.4039 21.4317C49.3257 21.5034 49.2625 21.5899 49.2179 21.6861C49.1732 21.7824 49.1481 21.8865 49.1438 21.9925C49.1395 22.0985 49.1562 22.2043 49.193 22.3038C49.946 24.3538 50.3715 26.5096 50.4541 28.6919H46.0936C45.8797 28.6919 45.6745 28.7769 45.5233 28.9282C45.372 29.0795 45.287 29.2847 45.287 29.4986C45.287 29.7125 45.372 29.9177 45.5233 30.069C45.6745 30.2202 45.8797 30.3052 46.0936 30.3052H50.4536C50.2648 35.3057 48.2873 40.0723 44.8809 43.7379L41.8042 40.6611C41.652 40.5142 41.4482 40.4329 41.2367 40.4348C41.0252 40.4367 40.8229 40.5216 40.6734 40.6712C40.5239 40.8208 40.4391 41.0231 40.4373 41.2346C40.4355 41.4461 40.5168 41.6498 40.6638 41.8019L43.7406 44.8782C40.0749 48.2845 35.3084 50.262 30.3079 50.451V46.091C30.3079 45.877 30.2229 45.6719 30.0717 45.5206C29.9204 45.3693 29.7152 45.2843 29.5013 45.2843C29.2873 45.2843 29.0822 45.3693 28.9309 45.5206C28.7796 45.6719 28.6946 45.877 28.6946 46.091V50.451C23.6942 50.2621 18.9276 48.2847 15.262 44.8782L18.3388 41.8019C18.4857 41.6498 18.5671 41.4461 18.5653 41.2346C18.5635 41.0231 18.4787 40.8208 18.3292 40.6712C18.1796 40.5216 17.9773 40.4367 17.7658 40.4348C17.5543 40.4329 17.3506 40.5142 17.1984 40.6611L14.1216 43.7379C10.7152 40.0723 8.73775 35.3057 8.54892 30.3052H12.9062C13.1201 30.3052 13.3253 30.2202 13.4765 30.069C13.6278 29.9177 13.7128 29.7125 13.7128 29.4986C13.7128 29.2847 13.6278 29.0795 13.4765 28.9282C13.3253 28.7769 13.1201 28.6919 12.9062 28.6919H8.54753C8.73594 23.6907 10.7134 18.9233 14.1203 15.257L17.197 18.3338C17.3482 18.485 17.5533 18.5699 17.7672 18.5699C17.9811 18.5699 18.1862 18.485 18.3374 18.3338C18.4886 18.1825 18.5736 17.9774 18.5736 17.7636C18.5736 17.5497 18.4886 17.3446 18.3374 17.1934L15.2606 14.1166C18.9266 10.7111 23.6931 8.73441 28.6933 8.54621V12.9062C28.6933 13.1202 28.7782 13.3253 28.9295 13.4766C29.0808 13.6279 29.286 13.7129 29.4999 13.7129C29.7138 13.7129 29.919 13.6279 30.0703 13.4766C30.2216 13.3253 30.3065 13.1202 30.3065 12.9062V8.54114C34.2562 8.68288 38.0829 9.95115 41.3354 12.1964L38.8256 14.3019C38.7074 14.4013 38.6203 14.5324 38.5744 14.6797C38.5285 14.8271 38.5258 14.9845 38.5666 15.1333C38.6075 15.2822 38.6901 15.4162 38.8048 15.5195C38.9195 15.6228 39.0614 15.691 39.2137 15.7161L51.8125 17.7802C51.9269 17.7991 52.0441 17.7931 52.156 17.7626C52.2678 17.7321 52.3718 17.6777 52.4608 17.6033C52.5498 17.5289 52.6216 17.4362 52.6715 17.3315C52.7213 17.2268 52.7479 17.1125 52.7496 16.9966L52.9045 4.23091C52.9068 4.07627 52.8646 3.92422 52.783 3.79285C52.7014 3.66148 52.5838 3.55633 52.4441 3.4899C52.3045 3.42347 52.1487 3.39856 51.9953 3.41814C51.8418 3.43772 51.6973 3.50097 51.5788 3.60035L48.0457 6.56556C42.4987 2.08386 35.5153 -0.235478 28.3893 0.0372025C21.2632 0.309883 14.4775 3.1561 9.28923 8.04859C4.10093 12.9411 0.8617 19.5482 0.171625 26.646C-0.518449 33.7438 1.3874 40.8512 5.53611 46.6515C9.68482 52.4517 15.7952 56.5517 22.7353 58.192C29.6753 59.8322 36.9747 58.9015 43.2811 55.5723C49.5875 52.243 54.4735 46.7408 57.034 40.0851C59.5945 33.4294 59.6559 26.0712 57.2068 19.3736ZM29.4999 57.3867C25.0104 57.388 20.5869 56.3054 16.6054 54.2308C12.624 52.1562 9.20226 49.151 6.63112 45.4706C4.05998 41.7903 2.41542 37.5435 1.83724 33.0914C1.25905 28.6392 1.76433 24.1133 3.31012 19.8983C4.85591 15.6833 7.39652 11.9038 10.716 8.88101C14.0355 5.85828 18.0357 3.68167 22.3766 2.5362C26.7176 1.39073 31.2709 1.31026 35.6496 2.30163C40.0283 3.293 44.1029 5.32691 47.5272 8.23047C47.6725 8.35347 47.8566 8.42124 48.047 8.42183C48.2374 8.42242 48.4219 8.35579 48.568 8.23369L51.27 5.96634L51.1478 16.0369L41.2077 14.4084L43.1648 12.7679C43.2575 12.6901 43.3315 12.5923 43.3813 12.482C43.4311 12.3717 43.4554 12.2515 43.4525 12.1305C43.4496 12.0095 43.4195 11.8907 43.3644 11.7829C43.3094 11.6751 43.2308 11.581 43.1344 11.5077C38.8104 8.22105 33.4447 6.60667 28.025 6.96171C22.6052 7.31674 17.496 9.61729 13.6377 13.44C13.5989 13.4662 13.5626 13.496 13.5293 13.5289C13.4963 13.5623 13.4665 13.5987 13.4404 13.6377C9.25968 17.8584 6.91432 23.559 6.91432 29.4997C6.91432 35.4405 9.25968 41.1411 13.4404 45.3618C13.4667 45.4006 13.4965 45.437 13.5293 45.4705C13.5628 45.5033 13.5992 45.5329 13.6381 45.559C17.8588 49.7396 23.5593 52.0849 29.4999 52.0849C35.4405 52.0849 41.141 49.7396 45.3617 45.559C45.4403 45.5073 45.5075 45.4402 45.5594 45.3618C48.4756 42.4191 50.5239 38.7292 51.479 34.6979C52.4341 30.6666 52.2591 26.45 50.9731 22.5117L55.9577 20.6896C57.3535 24.8813 57.7334 29.3445 57.0661 33.7118C56.3989 38.079 54.7036 42.2253 52.1198 45.8089C49.5361 49.3925 46.1379 52.311 42.2052 54.3239C38.2725 56.3369 33.9178 57.3866 29.4999 57.3867Z"/>
</mask>
<path d="M57.2068 19.3736C57.1333 19.1728 56.9831 19.0094 56.7891 18.9194C56.5951 18.8293 56.3734 18.8199 56.1725 18.8933L49.6733 21.2681C49.5736 21.3043 49.482 21.3599 49.4039 21.4317C49.3257 21.5034 49.2625 21.5899 49.2179 21.6861C49.1732 21.7824 49.1481 21.8865 49.1438 21.9925C49.1395 22.0985 49.1562 22.2043 49.193 22.3038C49.946 24.3538 50.3715 26.5096 50.4541 28.6919H46.0936C45.8797 28.6919 45.6745 28.7769 45.5233 28.9282C45.372 29.0795 45.287 29.2847 45.287 29.4986C45.287 29.7125 45.372 29.9177 45.5233 30.069C45.6745 30.2202 45.8797 30.3052 46.0936 30.3052H50.4536C50.2648 35.3057 48.2873 40.0723 44.8809 43.7379L41.8042 40.6611C41.652 40.5142 41.4482 40.4329 41.2367 40.4348C41.0252 40.4367 40.8229 40.5216 40.6734 40.6712C40.5239 40.8208 40.4391 41.0231 40.4373 41.2346C40.4355 41.4461 40.5168 41.6498 40.6638 41.8019L43.7406 44.8782C40.0749 48.2845 35.3084 50.262 30.3079 50.451V46.091C30.3079 45.877 30.2229 45.6719 30.0717 45.5206C29.9204 45.3693 29.7152 45.2843 29.5013 45.2843C29.2873 45.2843 29.0822 45.3693 28.9309 45.5206C28.7796 45.6719 28.6946 45.877 28.6946 46.091V50.451C23.6942 50.2621 18.9276 48.2847 15.262 44.8782L18.3388 41.8019C18.4857 41.6498 18.5671 41.4461 18.5653 41.2346C18.5635 41.0231 18.4787 40.8208 18.3292 40.6712C18.1796 40.5216 17.9773 40.4367 17.7658 40.4348C17.5543 40.4329 17.3506 40.5142 17.1984 40.6611L14.1216 43.7379C10.7152 40.0723 8.73775 35.3057 8.54892 30.3052H12.9062C13.1201 30.3052 13.3253 30.2202 13.4765 30.069C13.6278 29.9177 13.7128 29.7125 13.7128 29.4986C13.7128 29.2847 13.6278 29.0795 13.4765 28.9282C13.3253 28.7769 13.1201 28.6919 12.9062 28.6919H8.54753C8.73594 23.6907 10.7134 18.9233 14.1203 15.257L17.197 18.3338C17.3482 18.485 17.5533 18.5699 17.7672 18.5699C17.9811 18.5699 18.1862 18.485 18.3374 18.3338C18.4886 18.1825 18.5736 17.9774 18.5736 17.7636C18.5736 17.5497 18.4886 17.3446 18.3374 17.1934L15.2606 14.1166C18.9266 10.7111 23.6931 8.73441 28.6933 8.54621V12.9062C28.6933 13.1202 28.7782 13.3253 28.9295 13.4766C29.0808 13.6279 29.286 13.7129 29.4999 13.7129C29.7138 13.7129 29.919 13.6279 30.0703 13.4766C30.2216 13.3253 30.3065 13.1202 30.3065 12.9062V8.54114C34.2562 8.68288 38.0829 9.95115 41.3354 12.1964L38.8256 14.3019C38.7074 14.4013 38.6203 14.5324 38.5744 14.6797C38.5285 14.8271 38.5258 14.9845 38.5666 15.1333C38.6075 15.2822 38.6901 15.4162 38.8048 15.5195C38.9195 15.6228 39.0614 15.691 39.2137 15.7161L51.8125 17.7802C51.9269 17.7991 52.0441 17.7931 52.156 17.7626C52.2678 17.7321 52.3718 17.6777 52.4608 17.6033C52.5498 17.5289 52.6216 17.4362 52.6715 17.3315C52.7213 17.2268 52.7479 17.1125 52.7496 16.9966L52.9045 4.23091C52.9068 4.07627 52.8646 3.92422 52.783 3.79285C52.7014 3.66148 52.5838 3.55633 52.4441 3.4899C52.3045 3.42347 52.1487 3.39856 51.9953 3.41814C51.8418 3.43772 51.6973 3.50097 51.5788 3.60035L48.0457 6.56556C42.4987 2.08386 35.5153 -0.235478 28.3893 0.0372025C21.2632 0.309883 14.4775 3.1561 9.28923 8.04859C4.10093 12.9411 0.8617 19.5482 0.171625 26.646C-0.518449 33.7438 1.3874 40.8512 5.53611 46.6515C9.68482 52.4517 15.7952 56.5517 22.7353 58.192C29.6753 59.8322 36.9747 58.9015 43.2811 55.5723C49.5875 52.243 54.4735 46.7408 57.034 40.0851C59.5945 33.4294 59.6559 26.0712 57.2068 19.3736ZM29.4999 57.3867C25.0104 57.388 20.5869 56.3054 16.6054 54.2308C12.624 52.1562 9.20226 49.151 6.63112 45.4706C4.05998 41.7903 2.41542 37.5435 1.83724 33.0914C1.25905 28.6392 1.76433 24.1133 3.31012 19.8983C4.85591 15.6833 7.39652 11.9038 10.716 8.88101C14.0355 5.85828 18.0357 3.68167 22.3766 2.5362C26.7176 1.39073 31.2709 1.31026 35.6496 2.30163C40.0283 3.293 44.1029 5.32691 47.5272 8.23047C47.6725 8.35347 47.8566 8.42124 48.047 8.42183C48.2374 8.42242 48.4219 8.35579 48.568 8.23369L51.27 5.96634L51.1478 16.0369L41.2077 14.4084L43.1648 12.7679C43.2575 12.6901 43.3315 12.5923 43.3813 12.482C43.4311 12.3717 43.4554 12.2515 43.4525 12.1305C43.4496 12.0095 43.4195 11.8907 43.3644 11.7829C43.3094 11.6751 43.2308 11.581 43.1344 11.5077C38.8104 8.22105 33.4447 6.60667 28.025 6.96171C22.6052 7.31674 17.496 9.61729 13.6377 13.44C13.5989 13.4662 13.5626 13.496 13.5293 13.5289C13.4963 13.5623 13.4665 13.5987 13.4404 13.6377C9.25968 17.8584 6.91432 23.559 6.91432 29.4997C6.91432 35.4405 9.25968 41.1411 13.4404 45.3618C13.4667 45.4006 13.4965 45.437 13.5293 45.4705C13.5628 45.5033 13.5992 45.5329 13.6381 45.559C17.8588 49.7396 23.5593 52.0849 29.4999 52.0849C35.4405 52.0849 41.141 49.7396 45.3617 45.559C45.4403 45.5073 45.5075 45.4402 45.5594 45.3618C48.4756 42.4191 50.5239 38.7292 51.479 34.6979C52.4341 30.6666 52.2591 26.45 50.9731 22.5117L55.9577 20.6896C57.3535 24.8813 57.7334 29.3445 57.0661 33.7118C56.3989 38.079 54.7036 42.2253 52.1198 45.8089C49.5361 49.3925 46.1379 52.311 42.2052 54.3239C38.2725 56.3369 33.9178 57.3866 29.4999 57.3867Z" fill="#42FF66"/>
<path d="M57.2068 19.3736C57.1333 19.1728 56.9831 19.0094 56.7891 18.9194C56.5951 18.8293 56.3734 18.8199 56.1725 18.8933L49.6733 21.2681C49.5736 21.3043 49.482 21.3599 49.4039 21.4317C49.3257 21.5034 49.2625 21.5899 49.2179 21.6861C49.1732 21.7824 49.1481 21.8865 49.1438 21.9925C49.1395 22.0985 49.1562 22.2043 49.193 22.3038C49.946 24.3538 50.3715 26.5096 50.4541 28.6919H46.0936C45.8797 28.6919 45.6745 28.7769 45.5233 28.9282C45.372 29.0795 45.287 29.2847 45.287 29.4986C45.287 29.7125 45.372 29.9177 45.5233 30.069C45.6745 30.2202 45.8797 30.3052 46.0936 30.3052H50.4536C50.2648 35.3057 48.2873 40.0723 44.8809 43.7379L41.8042 40.6611C41.652 40.5142 41.4482 40.4329 41.2367 40.4348C41.0252 40.4367 40.8229 40.5216 40.6734 40.6712C40.5239 40.8208 40.4391 41.0231 40.4373 41.2346C40.4355 41.4461 40.5168 41.6498 40.6638 41.8019L43.7406 44.8782C40.0749 48.2845 35.3084 50.262 30.3079 50.451V46.091C30.3079 45.877 30.2229 45.6719 30.0717 45.5206C29.9204 45.3693 29.7152 45.2843 29.5013 45.2843C29.2873 45.2843 29.0822 45.3693 28.9309 45.5206C28.7796 45.6719 28.6946 45.877 28.6946 46.091V50.451C23.6942 50.2621 18.9276 48.2847 15.262 44.8782L18.3388 41.8019C18.4857 41.6498 18.5671 41.4461 18.5653 41.2346C18.5635 41.0231 18.4787 40.8208 18.3292 40.6712C18.1796 40.5216 17.9773 40.4367 17.7658 40.4348C17.5543 40.4329 17.3506 40.5142 17.1984 40.6611L14.1216 43.7379C10.7152 40.0723 8.73775 35.3057 8.54892 30.3052H12.9062C13.1201 30.3052 13.3253 30.2202 13.4765 30.069C13.6278 29.9177 13.7128 29.7125 13.7128 29.4986C13.7128 29.2847 13.6278 29.0795 13.4765 28.9282C13.3253 28.7769 13.1201 28.6919 12.9062 28.6919H8.54753C8.73594 23.6907 10.7134 18.9233 14.1203 15.257L17.197 18.3338C17.3482 18.485 17.5533 18.5699 17.7672 18.5699C17.9811 18.5699 18.1862 18.485 18.3374 18.3338C18.4886 18.1825 18.5736 17.9774 18.5736 17.7636C18.5736 17.5497 18.4886 17.3446 18.3374 17.1934L15.2606 14.1166C18.9266 10.7111 23.6931 8.73441 28.6933 8.54621V12.9062C28.6933 13.1202 28.7782 13.3253 28.9295 13.4766C29.0808 13.6279 29.286 13.7129 29.4999 13.7129C29.7138 13.7129 29.919 13.6279 30.0703 13.4766C30.2216 13.3253 30.3065 13.1202 30.3065 12.9062V8.54114C34.2562 8.68288 38.0829 9.95115 41.3354 12.1964L38.8256 14.3019C38.7074 14.4013 38.6203 14.5324 38.5744 14.6797C38.5285 14.8271 38.5258 14.9845 38.5666 15.1333C38.6075 15.2822 38.6901 15.4162 38.8048 15.5195C38.9195 15.6228 39.0614 15.691 39.2137 15.7161L51.8125 17.7802C51.9269 17.7991 52.0441 17.7931 52.156 17.7626C52.2678 17.7321 52.3718 17.6777 52.4608 17.6033C52.5498 17.5289 52.6216 17.4362 52.6715 17.3315C52.7213 17.2268 52.7479 17.1125 52.7496 16.9966L52.9045 4.23091C52.9068 4.07627 52.8646 3.92422 52.783 3.79285C52.7014 3.66148 52.5838 3.55633 52.4441 3.4899C52.3045 3.42347 52.1487 3.39856 51.9953 3.41814C51.8418 3.43772 51.6973 3.50097 51.5788 3.60035L48.0457 6.56556C42.4987 2.08386 35.5153 -0.235478 28.3893 0.0372025C21.2632 0.309883 14.4775 3.1561 9.28923 8.04859C4.10093 12.9411 0.8617 19.5482 0.171625 26.646C-0.518449 33.7438 1.3874 40.8512 5.53611 46.6515C9.68482 52.4517 15.7952 56.5517 22.7353 58.192C29.6753 59.8322 36.9747 58.9015 43.2811 55.5723C49.5875 52.243 54.4735 46.7408 57.034 40.0851C59.5945 33.4294 59.6559 26.0712 57.2068 19.3736ZM29.4999 57.3867C25.0104 57.388 20.5869 56.3054 16.6054 54.2308C12.624 52.1562 9.20226 49.151 6.63112 45.4706C4.05998 41.7903 2.41542 37.5435 1.83724 33.0914C1.25905 28.6392 1.76433 24.1133 3.31012 19.8983C4.85591 15.6833 7.39652 11.9038 10.716 8.88101C14.0355 5.85828 18.0357 3.68167 22.3766 2.5362C26.7176 1.39073 31.2709 1.31026 35.6496 2.30163C40.0283 3.293 44.1029 5.32691 47.5272 8.23047C47.6725 8.35347 47.8566 8.42124 48.047 8.42183C48.2374 8.42242 48.4219 8.35579 48.568 8.23369L51.27 5.96634L51.1478 16.0369L41.2077 14.4084L43.1648 12.7679C43.2575 12.6901 43.3315 12.5923 43.3813 12.482C43.4311 12.3717 43.4554 12.2515 43.4525 12.1305C43.4496 12.0095 43.4195 11.8907 43.3644 11.7829C43.3094 11.6751 43.2308 11.581 43.1344 11.5077C38.8104 8.22105 33.4447 6.60667 28.025 6.96171C22.6052 7.31674 17.496 9.61729 13.6377 13.44C13.5989 13.4662 13.5626 13.496 13.5293 13.5289C13.4963 13.5623 13.4665 13.5987 13.4404 13.6377C9.25968 17.8584 6.91432 23.559 6.91432 29.4997C6.91432 35.4405 9.25968 41.1411 13.4404 45.3618C13.4667 45.4006 13.4965 45.437 13.5293 45.4705C13.5628 45.5033 13.5992 45.5329 13.6381 45.559C17.8588 49.7396 23.5593 52.0849 29.4999 52.0849C35.4405 52.0849 41.141 49.7396 45.3617 45.559C45.4403 45.5073 45.5075 45.4402 45.5594 45.3618C48.4756 42.4191 50.5239 38.7292 51.479 34.6979C52.4341 30.6666 52.2591 26.45 50.9731 22.5117L55.9577 20.6896C57.3535 24.8813 57.7334 29.3445 57.0661 33.7118C56.3989 38.079 54.7036 42.2253 52.1198 45.8089C49.5361 49.3925 46.1379 52.311 42.2052 54.3239C38.2725 56.3369 33.9178 57.3866 29.4999 57.3867Z" stroke="#42FF66" stroke-width="0.4" mask="url(#path-1-outside-1)"/>
<path d="M39.1959 34.3974C39.1958 34.5164 39.2192 34.6343 39.2647 34.7442C39.3102 34.8542 39.3768 34.9541 39.4609 35.0383C39.545 35.1225 39.6449 35.1893 39.7548 35.2349C39.8647 35.2805 39.9826 35.304 40.1016 35.3041C40.2206 35.3042 40.3386 35.2808 40.4486 35.2352L39.2959 29.9024H39.1959M39.1959 34.3974L39.2959 34.3975H39.1959V34.3974ZM39.1959 34.3974V29.9024M39.1959 29.9024V29.8024H31.9785M39.1959 29.9024H31.9786M31.9786 29.9024L31.9785 29.8024M31.9786 29.9024H31.9785V29.8024M31.9786 29.9024C31.8595 29.9025 31.7415 29.8791 31.6315 29.8335C31.5215 29.788 31.4215 29.7212 31.3373 29.637C31.2531 29.5528 31.1863 29.4528 31.1408 29.3428C31.0952 29.2327 31.0718 29.1148 31.0719 28.9957V23.5945C31.0719 23.354 31.1674 23.1234 31.3374 22.9534C31.5075 22.7834 31.7381 22.6878 31.9785 22.6878C32.219 22.6878 32.4496 22.7834 32.6196 22.9534C32.7896 23.1234 32.8852 23.354 32.8852 23.5945V28.0891H39.195V23.5945C39.195 23.354 39.2905 23.1234 39.4605 22.9534C39.6306 22.7834 39.8612 22.6878 40.1016 22.6878C40.3421 22.6878 40.5727 22.7834 40.7427 22.9534C40.9127 23.1234 41.0083 23.354 41.0083 23.5945V34.3974V34.3975H40.9083L31.1719 28.9957C31.1718 29.1017 31.1926 29.2066 31.2332 29.3045C31.2737 29.4024 31.3331 29.4913 31.408 29.5663C31.4829 29.6412 31.5719 29.7006 31.6698 29.7411C31.7676 29.7816 31.8726 29.8024 31.9785 29.8024" fill="#42FF66" stroke="#42FF66" stroke-width="0.2"/>
<path d="M27.5246 27.8058L27.5245 27.8058L19.8041 32.9529V33.4908H27.0215C27.2619 33.4908 27.4925 33.5864 27.6626 33.7564C27.8326 33.9264 27.9281 34.157 27.9281 34.3975C27.9281 34.6379 27.8326 34.8685 27.6626 35.0386C27.4925 35.2086 27.2619 35.3041 27.0215 35.3041L18.8986 35.3041L18.8984 35.3041M27.5246 27.8058L18.0908 34.3975C18.0908 34.5035 18.1116 34.6085 18.1522 34.7064C18.1928 34.8044 18.2523 34.8934 18.3273 34.9683C18.4023 35.0432 18.4913 35.1026 18.5893 35.1431C18.6873 35.1836 18.7924 35.2043 18.8984 35.2041V35.3041M27.5246 27.8058C27.6487 27.723 27.7504 27.6108 27.8208 27.4792C27.8912 27.3477 27.9281 27.2008 27.9281 27.0515V27.0515V23.5945M27.5246 27.8058L17.9908 34.3974M18.8984 35.3041C18.7793 35.3043 18.6613 35.281 18.5512 35.2355C18.441 35.1901 18.3409 35.1233 18.2566 35.0391C18.1723 34.9548 18.1054 34.8548 18.0598 34.7447C18.0142 34.6346 17.9908 34.5166 17.9908 34.3975C17.9908 34.3975 17.9908 34.3975 17.9908 34.3974M18.8984 35.3041L17.9908 34.3974M17.9908 34.3974V32.4675C17.9908 32.3182 18.0276 32.1713 18.098 32.0396C18.1684 31.9079 18.2702 31.7957 18.3944 31.7128L18.3944 31.7127L26.1148 26.5661V24.5011H18.8984C18.6579 24.5011 18.4273 24.4056 18.2573 24.2356C18.0873 24.0655 17.9917 23.8349 17.9917 23.5945C17.9917 23.354 18.0873 23.1234 18.2573 22.9534C18.4273 22.7834 18.6579 22.6878 18.8984 22.6878L27.0214 22.6878C27.0214 22.6878 27.0215 22.6878 27.0215 22.6878C27.1406 22.6878 27.2585 22.7112 27.3685 22.7567C27.4785 22.8023 27.5785 22.869 27.6627 22.9533L27.5927 23.0232L27.6627 22.9533C27.7469 23.0375 27.8137 23.1374 27.8592 23.2475C27.9048 23.3575 27.9282 23.4755 27.9281 23.5945M27.9281 23.5945L27.8281 23.5945H27.9281V23.5945Z" fill="#42FF66" stroke="#42FF66" stroke-width="0.2"/>
</g>
<defs>
<clipPath id="clip0">
<rect width="59" height="59" fill="white"/>
</clipPath>
</defs>
</svg>
