<svg width="59" height="59" viewBox="0 0 59 59" fill="none" xmlns="http://www.w3.org/2000/svg">
<path d="M58.0781 3.6875H0.921875C0.412769 3.6875 0 4.10027 0 4.60938V39.6406C0 40.1497 0.412769 40.5625 0.921875 40.5625H20.1153L19.3723 45.0198C19.2883 45.522 19.6273 45.9971 20.1294 46.0811C20.1795 46.0895 20.2303 46.0938 20.2812 46.0938H38.7188C39.2279 46.0936 39.6405 45.6807 39.6404 45.1716C39.6404 45.1208 39.6361 45.07 39.6277 45.0198L38.8847 40.5625H58.0781C58.5872 40.5625 59 40.1497 59 39.6406V4.60938C59 4.10027 58.5872 3.6875 58.0781 3.6875ZM21.37 44.25L21.984 40.5625H37.016L37.63 44.25H21.37ZM57.1562 38.7188H37.7969H1.84375V34.1094H57.1562V38.7188ZM57.1562 32.2656H1.84375V5.53125H57.1562V32.2656Z" fill="#42FF66"/>
<path d="M52.5338 54.2385L51.612 48.7073C51.5376 48.2632 51.1533 47.9376 50.703 47.9375H8.29675C7.84641 47.9376 7.4621 48.2632 7.38778 48.7073L6.4659 54.2385C6.3819 54.7407 6.72092 55.2158 7.22299 55.2998C7.27324 55.3082 7.32405 55.3125 7.37487 55.3125H51.6249C52.134 55.3124 52.5466 54.8995 52.5465 54.3904C52.5465 54.3395 52.5423 54.2886 52.5338 54.2385ZM8.46361 53.4688L9.07758 49.7812H49.9222L50.5361 53.4688H8.46361Z" fill="#42FF66"/>
<path d="M47.0156 35.0312H46.0938C45.5846 35.0312 45.1719 35.444 45.1719 35.9531C45.1719 36.4622 45.5846 36.875 46.0938 36.875H47.0156C47.5247 36.875 47.9375 36.4622 47.9375 35.9531C47.9375 35.444 47.5247 35.0312 47.0156 35.0312Z" fill="#42FF66"/>
<path d="M50.7031 35.0312H49.7812C49.2721 35.0312 48.8594 35.444 48.8594 35.9531C48.8594 36.4622 49.2721 36.875 49.7812 36.875H50.7031C51.2122 36.875 51.625 36.4622 51.625 35.9531C51.625 35.444 51.2122 35.0312 50.7031 35.0312Z" fill="#42FF66"/>
<path d="M54.3906 35.0312H53.4688C52.9596 35.0312 52.5469 35.444 52.5469 35.9531C52.5469 36.4622 52.9596 36.875 53.4688 36.875H54.3906C54.8997 36.875 55.3125 36.4622 55.3125 35.9531C55.3125 35.444 54.8997 35.0312 54.3906 35.0312Z" fill="#42FF66"/>
</svg>
