<svg width="117" height="32" viewBox="0 0 117 32" fill="none" xmlns="http://www.w3.org/2000/svg">
<path d="M54.1281 25.3512V31.2191H52.949V27.3686C49.034 28.4279 48.4997 29.5886 48.4997 31.2191H47.3206C47.3022 28.8701 48.1589 27.387 52.949 26.3V25.4433C52.949 24.1168 52.3318 23.647 50.9685 23.647C49.5406 23.647 48.905 24.3563 48.6839 25.3143H47.4403C47.6891 23.6839 48.9879 22.6613 50.9685 22.6613C52.6542 22.6429 54.1281 23.3799 54.1281 25.3512Z" fill="white"/>

<path d="M60.6508 27.1934L60.6692 31.2098H59.4901L59.4717 22.8086H60.6508L60.5863 25.5445C61.2403 23.5087 63.0551 22.219 65.9107 22.8086V23.9877C62.5208 23.2692 60.6508 25.6182 60.6508 27.1934Z" fill="white"/>
<path d="M76.0071 25.2498H74.6806C74.5977 24.3378 73.7686 23.6838 72.4329 23.6838C71.0972 23.6838 70.3695 24.1351 70.3695 24.9642C70.3695 25.6827 70.8393 25.9038 72.9027 26.3552C75.1504 26.8434 76.0808 27.433 76.0808 28.9898C76.0808 30.3992 74.6069 31.3572 72.7185 31.3572C70.5721 31.3572 69.0245 30.4544 68.7666 28.6213H70.0931C70.2589 29.9109 71.2906 30.3163 72.7461 30.3163C73.9252 30.3163 74.8464 29.8465 74.8464 29.0266C74.8464 28.0686 74.0726 27.8291 72.2118 27.433C69.9641 26.9447 69.1074 26.2354 69.1074 24.9642C69.1074 23.4719 70.5721 22.6428 72.4329 22.6428C74.3766 22.6428 75.9426 23.6838 76.0071 25.2498Z" fill="white"/>
<path d="M83.219 22.6428C85.6878 22.6428 87.4012 24.476 87.4012 27.0092C87.4012 29.5333 85.8905 31.3756 83.219 31.3756C80.7319 31.3756 78.9355 29.478 78.9355 27.0092C78.9355 24.5405 80.7503 22.6428 83.219 22.6428ZM86.2774 26.5118C86.0931 24.8352 84.9509 23.739 83.219 23.739C81.5425 23.739 80.3265 24.8813 80.1239 26.5118H86.2774ZM83.219 30.2886C84.9969 30.2886 86.176 29.2477 86.2958 27.5343H80.1331C80.3265 29.1648 81.5241 30.2886 83.219 30.2886Z" fill="white"/>
<path d="M97.5157 31.2098H96.3366V23.9048H91.5004V31.2098H90.3213V22.8086H97.5157V31.2098Z" fill="white"/>
<path d="M107.898 25.3512V31.2191H106.719V27.3686C102.804 28.4279 102.269 29.5886 102.269 31.2191H101.09C101.072 28.8701 101.928 27.387 106.719 26.3V25.4433C106.719 24.1168 106.101 23.647 104.738 23.647C103.31 23.647 102.675 24.3563 102.453 25.3143H101.21C101.459 23.6839 102.757 22.6613 104.738 22.6613C106.424 22.6429 107.898 23.3799 107.898 25.3512Z" fill="white"/>
<path d="M113.332 18.608H112.153V31.2098H113.332V18.608Z" fill="white"/>
<path d="M0 12.7678V2.19266L2.19241 0.000244141H8.97231V2.99408H3.4268L2.98463 3.43625V11.5334L3.4268 11.9664H8.97231V14.9602H2.19241L0 12.7678Z" fill="white"/>
<path d="M11.2295 0H14.2141V5.78502H18.7095V0H21.6941V14.96H18.7095V8.77886H14.2141V14.96H11.2295V0Z" fill="white"/>
<path d="M24.4854 0H33.9643V2.99384H27.4792V5.68369H33.3655V8.67753H27.4792V11.9662H34.0656V14.96H24.4854V0Z" fill="white"/>
<path d="M36.1006 12.7676V2.19241L38.293 0H45.0729V2.99384H39.5274L39.0852 3.43601V11.5332L39.5274 11.9662H45.0729V14.96H38.293L36.1006 12.7676Z" fill="white"/>
<path d="M47.3301 0H50.3147V6.02453H51.8899L54.8101 3.11359V0H57.7947V4.34798L54.6258 7.51684L57.9974 10.8884V14.96H55.0035V12.132L51.8899 9.01837H50.3147V14.96H47.3301V0Z" fill="white"/>
<path d="M60.208 0H68.2868L70.4792 2.19241V7.48L68.2868 9.67241H63.2018V14.96H60.208V0ZM67.0524 6.67857L67.4946 6.2364V3.4268L67.0524 2.98463H63.2018V6.67857H67.0524Z" fill="white"/>
<path d="M85.3291 11.9662H87.7242V2.99384H85.5318V0H92.9104V2.99384H90.718V11.9662H93.1131V14.96H85.3291V11.9662Z" fill="white"/>
<path d="M95.2041 0H98.1979V2.09108L102.887 6.75226V0H105.871V14.96H102.887V10.9713L98.1979 6.31009V14.96H95.2041V0Z" fill="white"/>
<path d="M110.274 2.99384H106.58V0H116.953V2.99384H113.268V14.96H110.274V2.99384Z" fill="white"/>
<path d="M72.2666 0V7.48V14.96H83.5327V7.48V0H72.2666ZM80.548 7.48V11.9662H75.2604V7.48V2.99384H80.548V7.48Z" fill="white"/>
<animate dur="14000ms" repeatCount="indefinite" attributeName="stroke" values="violet;indigo;#00E8FF;#42FF66;yellow;darkorange;red" begin="0ms"></animate>
</svg>
