<svg width="320" height="137" viewBox="0 0 320 137" fill="none" xmlns="http://www.w3.org/2000/svg">
<path d="M306.424 129.966V131.289H303.92L308.123 135.468L307.177 136.408L302.974 132.23V134.719H301.625V130.785L302.466 129.966H306.424Z" fill="#43FF66"/>
<path d="M308.123 131.533H309.454V134.04L313.657 129.844L314.603 130.785L310.399 134.98H312.904V136.304H308.946L308.123 135.468V131.533Z" fill="#43FF66"/>
<path d="M306.442 123.507V124.848H303.937L308.14 129.026L307.195 129.966L302.991 125.788V128.278H301.661V124.343L302.484 123.507H306.442Z" fill="#43FF66"/>
<path d="M306.424 116.926V118.267H303.92L308.123 122.445L307.177 123.385L302.974 119.207V121.697H301.625V117.762L302.466 116.926H306.424Z" fill="#43FF66"/>
<path d="M306.442 110.484V111.808H303.937L308.14 115.986L307.195 116.926L302.991 112.748V115.255H301.661V111.303L302.484 110.484H306.442Z" fill="#43FF66"/>
<path d="M306.424 103.903V105.227H303.92L308.123 109.405L307.177 110.345L302.974 106.167V108.674H301.625V104.739L302.466 103.903H306.424Z" fill="#43FF66"/>
<path d="M306.442 97.4617V98.7849H303.937L308.14 102.963L307.195 103.903L302.991 99.725V102.215H301.661V98.28L302.484 97.4617H306.442Z" fill="#43FF66"/>
<path d="M301.661 92.7087H302.991V95.1984L307.195 91.02L308.14 91.9601L303.937 96.1385H306.442V97.4617H302.484L301.661 96.6434V92.7087Z" fill="#43FF66"/>
<path d="M301.661 86.1974H302.991V88.687L307.195 84.5086L308.14 85.4487L303.937 89.6271H306.442V90.9503H302.484L301.661 90.132V86.1974Z" fill="#43FF66"/>
<path d="M301.661 79.7905H302.991V82.2801L307.195 78.1017L308.14 79.0418L303.937 83.2202H306.442V84.5434H302.484L301.661 83.7251V79.7905Z" fill="#43FF66"/>
<path d="M301.661 73.2791H302.991V75.7687L307.195 71.5903L308.14 72.5304L303.937 76.7089H306.442V78.032H302.484L301.661 77.2137V73.2791Z" fill="#43FF66"/>
<path d="M308.158 125.074H309.489V127.581L313.692 123.403L314.638 124.343L310.434 128.521H312.956V129.844H308.998L308.158 129.009V125.074Z" fill="#43FF66"/>
<path d="M319.401 129.966V131.289H316.897L321.1 135.468L320.154 136.408L315.951 132.23V134.719H314.62V130.785L315.443 129.966H319.401Z" fill="#43FF66"/>
<path d="M319.664 70.8417V72.1648H317.142L321.345 76.3433L320.417 77.2834L316.196 73.105V75.612H314.865V71.6599L315.706 70.8417H319.664Z" fill="#43FF66"/>
<path d="M319.664 64.87V66.1932H317.142L321.345 70.3716L320.417 71.3117L316.196 67.1333V69.623H314.865V65.6883L315.706 64.87H319.664Z" fill="#43FF66"/>
<path d="M314.865 60.1171H316.196V62.6067L320.417 58.4283L321.345 59.3684L317.142 63.5468H319.664V64.87H315.706L314.865 64.0517V60.1171Z" fill="#43FF66"/>
<path d="M319.751 52.0214L319.716 53.3619L317.212 53.3097L321.345 57.5578L320.382 58.4805L316.249 54.2324L316.196 56.7221L314.865 56.7047L314.935 52.77L315.793 51.9517L319.751 52.0214Z" fill="#43FF66"/>
<path d="M312.956 38.1804V39.5035H310.435L314.655 43.6819L313.709 44.6221L309.506 40.4437V42.9507H308.158V39.016L308.998 38.1804H312.956Z" fill="#43FF66"/>
<path d="M321.1 131.533H322.431V134.04L326.634 129.844L327.58 130.785L323.377 134.98H325.898V136.304H321.941L321.1 135.468L321.1 131.533Z" fill="#43FF66"/>
<path d="M264.41 129.879V131.202H261.906L266.109 135.381L265.164 136.321L260.96 132.143V134.632H259.612V130.698L260.453 129.879H264.41Z" fill="#43FF66"/>
<path d="M266.109 131.446H267.44V133.936L271.643 129.757L272.589 130.698L268.386 134.876H270.89V136.217H266.932L266.109 135.381V131.446Z" fill="#43FF66"/>
<path d="M280.435 131.533H281.766V134.04L285.969 129.844L286.915 130.785L282.712 134.98H285.216V136.304H281.258L280.435 135.468V131.533Z" fill="#43FF66"/>
<path d="M237.581 129.879V131.202H235.059L239.262 135.381L238.334 136.321L234.113 132.143V134.632H232.782V130.698L233.623 129.879H237.581Z" fill="#43FF66"/>
<path d="M239.262 131.446H240.61V133.936L244.814 129.757L245.759 130.698L241.556 134.876H244.06V136.217H240.103L239.262 135.381L239.262 131.446Z" fill="#43FF66"/>
<path d="M250.558 129.879V131.202H248.053L252.257 135.381L251.311 136.321L247.108 132.143V134.632H245.777V130.698L246.6 129.879H250.558Z" fill="#43FF66"/>
<path d="M252.257 131.446H253.587V133.936L257.791 129.757L258.736 130.698L254.533 134.876H257.038V136.217H253.08L252.257 135.381V131.446Z" fill="#43FF66"/>
<path d="M322.694 129.844V128.521H325.198L320.995 124.343L321.941 123.403L326.144 127.581V125.092H327.475V129.026L326.652 129.844H322.694Z" fill="#43FF66"/>
<path d="M322.816 116.822V115.499H325.32L321.117 111.32L322.063 110.38L326.266 114.558V112.069H327.597V116.003L326.774 116.822H322.816Z" fill="#43FF66"/>
<path d="M322.886 110.014V108.691H325.391L321.187 104.513L322.133 103.573L326.336 107.751V105.261H327.667V109.196L326.844 110.014H322.886Z" fill="#43FF66"/>
<path d="M322.956 103.207V101.884H325.461L321.258 97.7054L322.203 96.7653L326.406 100.944V98.4541H327.737V102.389L326.914 103.207H322.956Z" fill="#43FF66"/>
<path d="M174.271 131.481H175.602V133.971L179.823 129.792L180.751 130.732L176.548 134.911H179.07V136.251H175.112L174.271 135.416V131.481Z" fill="#43FF66"/>
<path d="M175.865 129.792V128.469H178.369L174.166 124.291L175.112 123.35L179.315 127.529V125.039H180.646V128.974L179.823 129.792L175.865 129.792Z" fill="#43FF66"/>
<path d="M179.84 80.9395H178.492V78.4499L174.289 82.6283L173.343 81.6881L177.546 77.5097H175.042V76.1866H179L179.84 77.0048V80.9395Z" fill="#43FF66"/>
<path d="M178.247 82.6283V83.9515H175.742L179.946 88.1299L179 89.07L174.797 84.8916V87.3813H173.466V83.4466L174.289 82.6283H178.247Z" fill="#43FF66"/>
<path d="M179.753 67.2204H178.422V64.7307L174.219 68.9091L173.273 67.969L177.476 63.7906H174.954V62.45H178.912L179.753 63.2857V67.2204Z" fill="#43FF66"/>
<path d="M178.177 68.9091V70.2323H175.655L179.858 74.4107L178.912 75.3509L174.709 71.1725V73.6621H173.378V69.7274L174.219 68.9091H178.177Z" fill="#43FF66"/>
<path d="M179.665 53.7275H178.334V51.2205L174.131 55.3989L173.186 54.4588L177.389 50.2803H174.884V48.9572H178.842L179.665 49.7754V53.7275Z" fill="#43FF66"/>
<path d="M178.089 55.3989V56.7221H175.585L179.788 60.9179L178.842 61.8406L174.639 57.6622V60.1693H173.291V56.2346L174.131 55.3989H178.089Z" fill="#43FF66"/>
<path d="M179.648 40.4436H178.317V37.954L174.114 42.1324L173.168 41.1923L177.371 37.0138H174.849V35.6907H178.807L179.648 36.5089V40.4436Z" fill="#43FF66"/>
<path d="M178.072 42.1324V43.4556H175.55L179.753 47.634L178.807 48.5741L174.604 44.3957V46.8854H173.273V42.9507L174.096 42.1324H178.072Z" fill="#43FF66"/>
<path d="M175.988 116.769V115.446H178.492L174.289 111.268L175.235 110.328L179.438 114.506V112.017H180.769V115.951L179.946 116.769H175.988Z" fill="#43FF66"/>
<path d="M176.058 109.962V108.639H178.562L174.359 104.461L175.305 103.52L179.508 107.699V105.209H180.839V109.144L180.016 109.962H176.058Z" fill="#43FF66"/>
<path d="M176.128 103.155V101.832H178.632L174.429 97.6532L175.375 96.713L179.578 100.891V98.4018H180.909V102.337L180.086 103.155H176.128Z" fill="#43FF66"/>
<path d="M320.942 86.3367H322.273V88.8437L326.476 84.6653L327.422 85.6054L323.219 89.7839H325.723V91.107H321.765L320.942 90.2887V86.3367Z" fill="#43FF66"/>
<path d="M322.483 84.7175V83.3769H325.005L320.802 79.1985L321.748 78.2584L325.951 82.4368V79.9471H327.282V83.8818L326.441 84.7175H322.483Z" fill="#43FF66"/>
<path d="M322.991 69.4663V68.1431H325.513L321.31 63.9647L322.256 63.0245L326.459 67.2029V64.7133H327.79V68.648L326.949 69.4663H322.991Z" fill="#43FF66"/>
<path d="M323.061 62.6589V61.3357H325.583L321.38 57.1573L322.326 56.2172L326.529 60.3956V57.906H327.86V61.8406L327.019 62.6589H323.061Z" fill="#43FF66"/>
<path d="M323.131 55.8516V54.5284H325.653L321.45 50.35L322.396 49.4099L326.599 53.5883V51.0986H327.93V55.0333L327.089 55.8516H323.131Z" fill="#43FF66"/>
<path d="M323.201 49.0442V47.7211H325.723L321.52 43.5426L322.466 42.6025L326.669 46.7809V44.2913H328V48.2259L327.177 49.0442H323.201Z" fill="#43FF66"/>
<path d="M314.62 125.196H315.951V127.703L320.154 123.525L321.1 124.447L316.897 128.643H319.401V129.966H315.443L314.62 129.131V125.196Z" fill="#43FF66"/>
<path d="M312.974 116.996V118.319H310.452L314.673 122.497L313.727 123.438L309.524 119.259V121.766H308.175V117.814L309.016 116.996H312.974Z" fill="#43FF66"/>
<path d="M308.175 112.225H309.524V114.732L313.727 110.554L314.673 111.494L310.452 115.673H312.974V116.996H309.016L308.175 116.178V112.225Z" fill="#43FF66"/>
<path d="M312.956 104.112V105.453H310.452L314.655 109.631L313.709 110.571L309.506 106.393V108.883H308.175V104.948L308.998 104.112H312.956Z" fill="#43FF66"/>
<path d="M308.158 99.3594H309.506V101.849L313.709 97.6706L314.655 98.6107L310.452 102.789H312.956V104.112H308.998L308.158 103.294V99.3594Z" fill="#43FF66"/>
<path d="M312.939 91.1941V92.5346H310.434L314.638 96.7131L313.692 97.6532L309.489 93.4748V95.9644H308.158V92.0297L308.981 91.1941H312.939Z" fill="#43FF66"/>
<path d="M308.158 86.4411H309.489V88.9308L313.692 84.7523L314.638 85.6925L310.434 89.8709H312.939V91.1941H308.981L308.158 90.3758V86.4411Z" fill="#43FF66"/>
<path d="M306.407 57.61V58.9332H303.885L308.105 63.129L307.16 64.0517L302.939 59.8733V62.3804H301.608V58.4457L302.449 57.61H306.407Z" fill="#43FF66"/>
<path d="M313.167 64.1388V65.4619H310.662L314.865 69.6404L313.92 70.5805L309.716 66.4021V68.8917H308.368V64.9571L309.209 64.1388H313.167Z" fill="#43FF66"/>
<path d="M301.608 52.857H302.939V55.3467L307.16 51.1683L308.105 52.1084L303.885 56.2868H306.407V57.61H302.449L301.608 56.7917V52.857Z" fill="#43FF66"/>
<path d="M314.585 118.806H315.916V121.296L320.119 117.118L321.065 118.058L316.862 122.236H319.366V123.559H315.408L314.585 122.741V118.806Z" fill="#43FF66"/>
<path d="M314.638 112.034H315.969V114.524L320.172 110.345L321.117 111.285L316.914 115.464H319.419V116.787H315.461L314.638 115.969V112.034Z" fill="#43FF66"/>
<path d="M314.673 105.244H316.021V107.751L320.224 103.555L321.17 104.495L316.967 108.674H319.471V110.014H315.513L314.673 109.179V105.244Z" fill="#43FF66"/>
<path d="M314.725 98.4715H316.074V100.961L320.277 96.7827L321.223 97.7228L317.019 101.901H319.524V103.224H315.566L314.725 102.406V98.4715Z" fill="#43FF66"/>
<path d="M314.743 92.6217H316.091V95.1113L320.294 90.9329L321.24 91.8731L317.037 96.0515H319.541V97.3746H315.583L314.743 96.5564V92.6217Z" fill="#43FF66"/>
<path d="M314.83 86.2148H316.179V88.7044L320.382 84.526L321.328 85.4661L317.107 89.6446H319.629V90.9851H315.671L314.83 90.1495V86.2148Z" fill="#43FF66"/>
<path d="M294.971 131.307H296.319V133.797L300.522 129.618L301.468 130.558L297.265 134.737H299.769V136.077H295.811L294.971 135.242V131.307Z" fill="#43FF66"/>
<path d="M294.971 124.743H296.319V127.25L300.522 123.072L301.468 124.012L297.265 128.19H299.769V129.514H295.811L294.971 128.695V124.743Z" fill="#43FF66"/>
<path d="M294.971 118.197H296.319V120.687L300.522 116.508L301.468 117.448L297.265 121.627H299.769V122.95H295.811L294.971 122.132V118.197Z" fill="#43FF66"/>
<path d="M294.971 111.634H296.319V114.141L300.522 109.962L301.468 110.902L297.265 115.081H299.769V116.404H295.811L294.971 115.568V111.634Z" fill="#43FF66"/>
<path d="M295.303 99.133H296.652V101.623L300.855 97.4443L301.801 98.3844L297.598 102.563H300.102V103.886H296.144L295.303 103.068V99.133Z" fill="#43FF66"/>
<path d="M251.591 122.184V123.507H249.069L253.272 127.686L252.327 128.626L248.123 124.447V126.954H246.792V123.02L247.616 122.184H251.591Z" fill="#43FF66"/>
<path d="M253.272 123.751H254.603V126.258L258.824 122.08L259.77 123.02L255.549 127.198H258.071V128.521H254.113L253.272 127.703V123.751Z" fill="#43FF66"/>
<path d="M250.873 115.742V117.065H248.369L252.572 121.244L251.626 122.184L247.423 118.006V120.495H246.092V116.561L246.915 115.742H250.873Z" fill="#43FF66"/>
<path d="M252.572 117.309H253.903V119.799L258.106 115.62L259.052 116.561L254.848 120.739H257.37V122.08H253.412L252.572 121.244V117.309Z" fill="#43FF66"/>
<path d="M264.568 122.184V123.507H262.064L266.267 127.686L265.321 128.626L261.118 124.447V126.954H259.77V123.02L260.61 122.184H264.568Z" fill="#43FF66"/>
<path d="M264.813 63.0594V64.3999H262.309L266.512 68.5784L265.566 69.5185L261.363 65.3227V67.8297H260.032V63.895L260.855 63.0594H264.813Z" fill="#43FF66"/>
<path d="M264.813 57.0877V58.4109H262.309L266.512 62.5893L265.566 63.5294L261.363 59.351V61.8581H260.032V57.906L260.855 57.0877H264.813Z" fill="#43FF66"/>
<path d="M260.032 52.3347H261.363V54.8418L265.566 50.646L266.512 51.5861L262.309 55.7819H264.813V57.1051H260.855L260.032 56.2694V52.3347Z" fill="#43FF66"/>
<path d="M264.848 44.2216V45.5448H262.344L266.547 49.7232L265.601 50.6634L261.398 46.4849V48.9746H260.05V45.0399L260.89 44.2216H264.848Z" fill="#43FF66"/>
<path d="M285.391 19.7082V21.0314H282.869L287.072 25.2098L286.127 26.1499L281.923 21.9715V24.4786H280.592V20.5439L281.433 19.7082H285.391Z" fill="#43FF66"/>
<path d="M285.391 13.7366V15.0597H282.869L287.072 19.2382L286.127 20.1783L281.923 15.9999V18.4895H280.592V14.5548L281.433 13.7366H285.391Z" fill="#43FF66"/>
<path d="M280.592 8.9836H281.923V11.4732L286.127 7.29482L287.072 8.23497L282.869 12.4134H285.391V13.754H281.433L280.592 12.9183V8.9836Z" fill="#43FF66"/>
<path d="M285.409 0.870499V2.19366H282.904L287.107 6.37209L286.162 7.31223L281.958 3.1338V5.62346H280.627V1.68877L281.451 0.870499H285.409Z" fill="#43FF66"/>
<path d="M295.198 33.9497H296.529V36.4393L300.732 32.2609L301.678 33.2011L297.475 37.3795H299.979V38.7027H296.021L295.198 37.8844V33.9497Z" fill="#43FF66"/>
<path d="M300.014 25.8192V27.1597H297.51L301.713 31.3382L300.767 32.2783L296.564 28.0999V30.5895H295.233V26.6549L296.056 25.8192H300.014Z" fill="#43FF66"/>
<path d="M266.267 123.751H267.598V126.258L271.801 122.08L272.747 123.02L268.544 127.198H271.048V128.521H267.09L266.267 127.703V123.751Z" fill="#43FF66"/>
<path d="M210.908 122.184V123.507H208.404L212.607 127.686L211.661 128.626L207.458 124.447V126.954H206.127V123.02L206.95 122.184H210.908Z" fill="#43FF66"/>
<path d="M212.607 123.751H213.938V126.258L218.141 122.08L219.087 123.02L214.884 127.198H217.388V128.521H213.43L212.607 127.703V123.751Z" fill="#43FF66"/>
<path d="M225.584 123.751H226.933V126.258L231.136 122.08L232.082 123.02L227.861 127.198H230.383V128.521H226.425L225.584 127.703V123.751Z" fill="#43FF66"/>
<path d="M186.215 129.914V131.237H183.711L187.914 135.416L186.968 136.356L182.765 132.177V134.684H181.434V130.732L182.257 129.914H186.215Z" fill="#43FF66"/>
<path d="M186.548 123.751H187.879V126.258L192.1 122.08L193.045 123.02L188.825 127.198H191.346V128.521H187.389L186.548 127.703V123.751Z" fill="#43FF66"/>
<path d="M197.844 122.184V123.507H195.339L199.543 127.686L198.597 128.626L194.394 124.447V126.954H193.045L193.045 123.02L193.886 122.184H197.844Z" fill="#43FF66"/>
<path d="M199.63 123.751H200.961V126.258L205.164 122.08L206.11 123.02L201.907 127.198H204.411V128.521H200.453L199.63 127.703V123.751Z" fill="#43FF66"/>
<path d="M267.843 122.08V120.756H270.347L266.144 116.561L267.09 115.638L271.293 119.816V117.309H272.642V121.244L271.801 122.08L267.843 122.08Z" fill="#43FF66"/>
<path d="M267.966 109.057V107.716H270.487L266.284 103.538L267.23 102.598L271.433 106.776V104.286H272.764V108.221L271.924 109.057H267.966Z" fill="#43FF66"/>
<path d="M268.036 102.249V100.909H270.558L266.354 96.7305L267.3 95.7903L271.503 99.9688V97.4791H272.834V101.414L271.994 102.249H268.036Z" fill="#43FF66"/>
<path d="M268.106 95.4421V94.1189H270.628L266.424 89.9231L267.37 88.983L271.573 93.1788V90.6717H272.904V94.6064L272.081 95.4421H268.106Z" fill="#43FF66"/>
<path d="M268.193 88.6348V87.3116H270.698L266.495 83.1158L267.44 82.1931L271.643 86.3715V83.8644H272.974V87.7991L272.151 88.6348H268.193Z" fill="#43FF66"/>
<path d="M259.77 117.431H261.118V119.921L265.321 115.742L266.267 116.682L262.064 120.861H264.568V122.184H260.61L259.77 121.366V117.431Z" fill="#43FF66"/>
<path d="M259.735 111.024H261.065V113.531L265.269 109.353L266.214 110.276L262.011 114.471H264.533V115.795H260.575L259.735 114.959V111.024Z" fill="#43FF66"/>
<path d="M259.787 104.252H261.118V106.741L265.321 102.563L266.267 103.503L262.064 107.681H264.586V109.005H260.628L259.787 108.186V104.252Z" fill="#43FF66"/>
<path d="M259.84 97.4617H261.171V99.9687L265.374 95.7903L266.319 96.7305L262.116 100.909H264.638V102.232H260.663L259.84 101.414V97.4617Z" fill="#43FF66"/>
<path d="M259.892 90.6892H261.223V93.1788L265.426 89.0004L266.372 89.9405L262.169 94.119H264.673V95.4595H260.715L259.892 94.6239V90.6892Z" fill="#43FF66"/>
<path d="M259.945 83.9167H261.276V86.4063L265.479 82.2279L266.424 83.168L262.221 87.3464H264.726V88.6696H260.768L259.945 87.8513V83.9167Z" fill="#43FF66"/>
<path d="M259.997 77.1267H261.328V79.6338L265.531 75.4553L266.477 76.3781L262.274 80.5739H264.778V81.8971H260.82L259.997 81.0614V77.1267Z" fill="#43FF66"/>
<path d="M236.775 117.431H238.106V119.921L242.309 115.742L243.255 116.682L239.052 120.861H241.574V122.184H237.616L236.775 121.366V117.431Z" fill="#43FF66"/>
<path d="M236.775 110.867H238.106V113.357L242.309 109.179L243.255 110.119L239.052 114.297H241.574V115.638H237.616L236.775 114.802V110.867Z" fill="#43FF66"/>
<path d="M236.775 104.304H238.106V106.811L242.309 102.632L243.255 103.573L239.052 107.751H241.574V109.074H237.616L236.775 108.239V104.304Z" fill="#43FF66"/>
<path d="M236.775 97.7577H238.106V100.247L242.309 96.0689L243.255 97.009L239.052 101.187H241.574V102.511H237.616L236.775 101.692V97.7577Z" fill="#43FF66"/>
<path d="M251.293 102.406V103.747H248.789L252.992 107.925L252.046 108.865L247.843 104.669V107.177H246.512V103.242L247.335 102.406H251.293Z" fill="#43FF66"/>
<path d="M250.926 95.4247V96.7479H248.404L252.624 100.926L251.679 101.866L247.475 97.688V100.195H246.127V96.2604L246.968 95.4247H250.926Z" fill="#43FF66"/>
<path d="M236.775 84.2474H238.106V86.7371L242.309 82.5587L243.255 83.4988L239.052 87.6772H241.574V89.0178H237.616L236.775 88.1821V84.2474Z" fill="#43FF66"/>
<path d="M211.241 115.098V116.439H208.737L212.94 120.617L211.994 121.557L207.791 117.361V119.868H206.46V115.934L207.283 115.098H211.241Z" fill="#43FF66"/>
<path d="M212.94 116.682H214.271V119.172L218.474 114.994L219.42 115.934L215.217 120.112H217.738V121.435H213.781L212.94 120.617V116.682Z" fill="#43FF66"/>
<path d="M211.189 108.726V110.049H208.667L212.87 114.228L211.924 115.168L207.721 110.989V113.479H206.39V109.544L207.231 108.726H211.189Z" fill="#43FF66"/>
<path d="M212.87 110.293H214.218V112.783L218.421 108.604L219.367 109.544L215.147 113.723H217.668V115.063H213.711L212.87 114.228L212.87 110.293Z" fill="#43FF66"/>
<path d="M224.236 115.098V116.439H221.714L225.935 120.617L224.989 121.557L220.786 117.361V119.868H219.437V115.934L220.278 115.098H224.236Z" fill="#43FF66"/>
<path d="M224.481 55.9909V57.314H221.977L226.18 61.4924L225.234 62.4326L221.031 58.2542V60.7438H219.7V56.8091L220.523 55.9909H224.481Z" fill="#43FF66"/>
<path d="M224.481 50.0018V51.325H221.977L226.18 55.5208L225.234 56.4609L221.031 52.2651V54.7722H219.7V50.8375L220.523 50.0018H224.481Z" fill="#43FF66"/>
<path d="M219.7 45.2488H221.031V47.7559L225.234 43.5775L226.18 44.5176L221.977 48.696H224.481V50.0192H220.523L219.7 49.2009V45.2488Z" fill="#43FF66"/>
<path d="M224.516 37.1357V38.4589H221.994L226.215 42.6373L225.269 43.5775L221.048 39.399V41.9061H219.717V37.9714L220.558 37.1357H224.516Z" fill="#43FF66"/>
<path d="M312.273 31.669V32.9921H309.769L313.972 37.1705L313.026 38.1107L308.823 33.9323V36.4393H307.492V32.4872L308.315 31.669H312.273Z" fill="#43FF66"/>
<path d="M312.273 25.6973V27.0205H309.769L313.972 31.1989L313.026 32.139L308.823 27.9606V30.4503H307.492V26.5156L308.315 25.6973H312.273Z" fill="#43FF66"/>
<path d="M307.492 20.9444H308.823V23.434L313.026 19.2556L313.972 20.1957L309.769 24.3741H312.273V25.6973H308.315L307.492 24.879V20.9444Z" fill="#43FF66"/>
<path d="M312.308 12.8312V14.1544H309.787L313.99 18.3328L313.044 19.273L308.841 15.0945V17.5842H307.51V13.6495L308.35 12.8312H312.308Z" fill="#43FF66"/>
<path d="M297.037 6.44171V5.11856H299.559L295.356 0.94014L296.284 0L300.505 4.17841V1.68878H301.836V5.62346L300.995 6.44171H297.037Z" fill="#43FF66"/>
<path d="M297.037 12.4134V11.0902H299.559L295.356 6.91182L296.284 5.97169L300.505 10.1501V7.66045H301.836V11.5951L300.995 12.4134H297.037Z" fill="#43FF66"/>
<path d="M301.836 17.1664H300.505V14.6767L296.284 18.8551L295.356 17.915L299.559 13.7366H297.037V12.4134H300.995L301.836 13.2317V17.1664Z" fill="#43FF66"/>
<path d="M297.02 25.2794V23.9563H299.524L295.321 19.7779L296.267 18.8377L300.47 23.0161V20.5265H301.801V24.4612L300.978 25.2794H297.02Z" fill="#43FF66"/>
<path d="M225.935 116.682H227.266V119.172L231.469 114.994L232.414 115.934L228.211 120.112H230.716V121.435H226.758L225.935 120.617V116.682Z" fill="#43FF66"/>
<path d="M204.096 129.914L204.937 130.732V134.684H203.588V132.177L199.385 136.356L198.439 135.416L202.642 131.237H200.138V129.914H204.096Z" fill="#43FF66"/>
<path d="M198.352 135.433L197.529 136.251H193.571V134.928H196.075L191.872 130.75L192.818 129.81L197.021 133.988V131.481H198.352V135.433Z" fill="#43FF66"/>
<path d="M186.04 116.682H187.371V119.172L191.574 114.994L192.52 115.934L188.317 120.112H190.821V121.435H186.863L186.04 120.617V116.682Z" fill="#43FF66"/>
<path d="M230.068 129.914L230.891 130.732V134.684H229.56V132.177L225.357 136.356L224.411 135.416L228.614 131.237H226.11V129.914H230.068Z" fill="#43FF66"/>
<path d="M224.411 135.433L223.588 136.251H219.612V134.928H222.134L217.931 130.75L218.877 129.81L223.08 133.988V131.481H224.411V135.433Z" fill="#43FF66"/>
<path d="M217.073 129.914L217.914 130.732V134.684H216.583V132.177L212.362 136.356L211.434 135.416L215.637 131.237H213.115V129.914H217.073Z" fill="#43FF66"/>
<path d="M211.434 135.433L210.593 136.251H206.635V134.928H209.14L204.937 130.75L205.882 129.81L210.085 133.988V131.481H211.434V135.433Z" fill="#43FF66"/>
<path d="M227.511 114.994V113.67H230.015L225.812 109.492L226.758 108.552L230.961 112.73V110.223H232.292V114.175L231.469 114.994H227.511Z" fill="#43FF66"/>
<path d="M227.633 101.971V100.648H230.155L225.935 96.4693L226.88 95.5292L231.083 99.7076V97.2005H232.432V101.135L231.591 101.971H227.633Z" fill="#43FF66"/>
<path d="M227.703 95.1636V93.8404H230.225L226.022 89.662L226.95 88.7218L231.171 92.9002V90.3932H232.502V94.3279L231.661 95.1636H227.703Z" fill="#43FF66"/>
<path d="M227.773 88.3562V87.033H230.295L226.092 82.8546L227.038 81.9145L231.241 86.0929V83.5858H232.572V87.5379L231.731 88.3562H227.773Z" fill="#43FF66"/>
<path d="M227.843 81.5489V80.2257H230.365L226.162 76.0473L227.108 75.1071L231.311 79.2855V76.7959H232.642V80.7306L231.801 81.5489H227.843Z" fill="#43FF66"/>
<path d="M219.437 110.345H220.786V112.835L224.989 108.656L225.935 109.597L221.714 113.775H224.236V115.098H220.278L219.437 114.28V110.345Z" fill="#43FF66"/>
<path d="M285.181 123.385V124.726H282.676L286.88 128.904L285.934 129.844L281.731 125.666V128.156H280.4V124.221L281.223 123.385H285.181Z" fill="#43FF66"/>
<path d="M280.4 118.632H281.731V121.122L285.934 116.944L286.88 117.884L282.676 122.062H285.181V123.385H281.223L280.4 122.567V118.632Z" fill="#43FF66"/>
<path d="M285.181 110.537V111.86H282.676L286.88 116.038L285.934 116.978L281.731 112.8V115.29H280.4V111.355L281.223 110.537H285.181Z" fill="#43FF66"/>
<path d="M280.4 105.766H281.731V108.273L285.934 104.095L286.88 105.035L282.676 109.213H285.181V110.537H281.223L280.4 109.701V105.766Z" fill="#43FF66"/>
<path d="M285.181 97.6706V99.0112H282.676L286.88 103.19L285.934 104.13L281.731 99.9513V102.441H280.4V98.5063L281.223 97.6706H285.181Z" fill="#43FF66"/>
<path d="M280.4 92.9176H281.731V95.4073L285.934 91.2289L286.88 92.169L282.676 96.3474H285.181V97.6706H281.223L280.4 96.8523V92.9176Z" fill="#43FF66"/>
<path d="M285.181 84.822V86.1451H282.676L286.88 90.3235L285.934 91.2637L281.731 87.0853V89.5749H280.4V85.6402L281.223 84.822H285.181Z" fill="#43FF66"/>
<path d="M280.4 80.0516H281.731V82.5586L285.934 78.3802L286.88 79.3204L282.676 83.4988H285.181V84.822H281.223L280.4 83.9863V80.0516Z" fill="#43FF66"/>
<path d="M296.021 97.4965L295.198 96.6782V92.7435H296.529V95.2332L300.732 91.0548L301.678 91.9949L297.475 96.1733H299.979V97.4965H296.021Z" fill="#43FF66"/>
<path d="M300.89 84.5956L301.713 85.4139V89.3486H300.382V86.8589L296.179 91.0374L295.233 90.0972L299.436 85.9188H296.932V84.5956H300.89Z" fill="#43FF66"/>
<path d="M301.713 83.7599L300.89 84.5956H296.932V83.2725H299.436L295.233 79.0766L296.179 78.1539L300.382 82.3323V79.8253H301.713V83.7599Z" fill="#43FF66"/>
<path d="M300.89 71.7296L301.713 72.5653V76.4999H300.382V73.9929L296.179 78.1887L295.233 77.2486L299.436 73.0702H296.932V71.7296H300.89Z" fill="#43FF66"/>
<path d="M301.713 70.9113L300.89 71.7296H296.932V70.4064H299.436L295.233 66.228L296.179 65.2878L300.382 69.4663V66.9766H301.713V70.9113Z" fill="#43FF66"/>
<path d="M300.89 45.7537L301.713 46.5894V50.5241H300.382V48.0344L296.179 52.2129L295.233 51.2727L299.436 47.0943H296.932V45.7537H300.89Z" fill="#43FF66"/>
<path d="M301.713 44.9355L300.89 45.7537H296.932V44.4306H299.436L295.233 40.2521L296.179 39.312L300.382 43.4904V41.0008H301.713V44.9355Z" fill="#43FF66"/>
<path d="M110.402 129.705V131.028H107.897L112.1 135.207L111.155 136.147L106.952 131.968V134.458H105.621V130.523L106.444 129.705H110.402Z" fill="#43FF66"/>
<path d="M137.424 131.516H138.755V134.023L142.976 129.844L143.904 130.785L139.701 134.963H142.223V136.286H138.265L137.424 135.468V131.516Z" fill="#43FF66"/>
<path d="M110.419 123.246V124.569H107.915L112.118 128.748L111.172 129.688L106.969 125.509V128.016H105.638V124.082L106.461 123.246H110.419Z" fill="#43FF66"/>
<path d="M110.402 116.665V117.988H107.897L112.1 122.167L111.155 123.107L106.952 118.928V121.435H105.621V117.501L106.444 116.665H110.402Z" fill="#43FF66"/>
<path d="M110.419 110.223V111.546H107.915L112.118 115.725L111.172 116.665L106.969 112.487V114.976H105.638V111.042L106.461 110.223H110.419Z" fill="#43FF66"/>
<path d="M110.402 103.642V104.965H107.897L112.1 109.144L111.155 110.084L106.952 105.906V108.395H105.621V104.461L106.444 103.642H110.402Z" fill="#43FF66"/>
<path d="M110.419 97.1831V98.5237H107.915L112.118 102.702L111.172 103.642L106.969 99.4639V101.953H105.638V98.0188L106.461 97.1831H110.419Z" fill="#43FF66"/>
<path d="M137.389 95.8251H136.058V93.3355L131.855 97.5139L130.909 96.5738L135.112 92.3954H132.608V91.0548H136.566L137.389 91.8905V95.8251Z" fill="#43FF66"/>
<path d="M130.962 86.18H132.293V88.6696L136.496 84.4912L137.442 85.4313L133.239 89.6097H135.76V90.9503H131.802L130.962 90.1146V86.18Z" fill="#43FF66"/>
<path d="M130.962 79.773H132.293V82.2627L136.496 78.0843L137.442 79.0244L133.239 83.2028H135.76V84.5434H131.802L130.962 83.7077V79.773Z" fill="#43FF66"/>
<path d="M130.962 73.2617H132.293V75.7687L136.496 71.5729L137.442 72.513L133.239 76.7089H135.76V78.032H131.802L130.962 77.1963V73.2617Z" fill="#43FF66"/>
<path d="M137.477 125.074H138.808V127.564L143.011 123.385L143.956 124.325L139.753 128.504H142.258V129.827H138.3L137.477 129.009V125.074Z" fill="#43FF66"/>
<path d="M148.72 129.949V131.272H146.216L150.419 135.451L149.473 136.391L145.27 132.212V134.719H143.921V130.785L144.762 129.949H148.72Z" fill="#43FF66"/>
<path d="M148.965 70.8242V72.1648H146.461L150.664 76.3433L149.718 77.2834L145.515 73.0876V75.5946H144.184V71.6599L145.007 70.8242H148.965Z" fill="#43FF66"/>
<path d="M148.965 64.8526V66.1758H146.461L150.664 70.3542L149.718 71.2943L145.515 67.1159V69.6229H144.184V65.6709L145.007 64.8526H148.965Z" fill="#43FF66"/>
<path d="M144.184 60.0996H145.515V62.6067L149.718 58.4109L150.664 59.351L146.461 63.5468H148.965V64.87H145.007L144.184 64.0343V60.0996Z" fill="#43FF66"/>
<path d="M149.053 52.0214L149.035 53.3445L146.531 53.2923L150.646 57.5578L149.683 58.4805L145.568 54.215L145.515 56.7047L144.184 56.6873L144.254 52.7526L145.095 51.9343L149.053 52.0214Z" fill="#43FF66"/>
<path d="M150.419 131.516H151.75V134.023L155.953 129.844L156.898 130.785L152.695 134.963H155.2V136.286H151.242L150.419 135.468V131.516Z" fill="#43FF66"/>
<path d="M151.995 129.844V128.521H154.499L150.296 124.325L151.242 123.403L155.445 127.581V125.074H156.793V129.009L155.953 129.844L151.995 129.844Z" fill="#43FF66"/>
<path d="M155.375 96.7653V98.0885H152.853L157.074 102.267L156.128 103.207L151.907 99.0286V101.536H150.576V97.601L151.417 96.7653H155.375Z" fill="#43FF66"/>
<path d="M155.305 103.573V104.896H152.783L156.986 109.074L156.058 110.014L151.837 105.836V108.343H150.506V104.391L151.347 103.573H155.305Z" fill="#43FF66"/>
<path d="M155.217 110.38V111.703H152.713L156.934 115.864L155.988 116.822L151.767 112.661L151.785 115.15H150.454L150.436 111.216L151.259 110.38H155.217Z" fill="#43FF66"/>
<path d="M150.244 86.3366H151.592V88.8263L155.795 84.6479L156.741 85.588L152.538 89.7664H155.042V91.0896H151.084L150.244 90.2713V86.3366Z" fill="#43FF66"/>
<path d="M151.802 84.7001V83.3769H154.307L150.103 79.1985L151.049 78.2584L155.252 82.4368V79.9297H156.583V83.8644L155.76 84.7001H151.802Z" fill="#43FF66"/>
<path d="M152.31 69.4489V68.1257H154.814L150.611 63.9473L151.557 63.0071L155.76 67.1855V64.6959H157.091V68.6306L156.268 69.4489H152.31Z" fill="#43FF66"/>
<path d="M152.38 62.6415V61.3184H154.885L150.681 57.1399L151.627 56.1998L155.83 60.3782V57.8886H157.161V61.8232L156.338 62.6415H152.38Z" fill="#43FF66"/>
<path d="M152.45 55.8516V54.511H154.955L150.751 50.3326L151.697 49.3924L155.9 53.5709V51.0812H157.231V55.0159L156.408 55.8516H152.45Z" fill="#43FF66"/>
<path d="M152.52 49.0442V47.7036H155.025L150.822 43.5252L151.767 42.5851L155.97 46.7635V44.2739H157.301V48.2085L156.478 49.0442H152.52Z" fill="#43FF66"/>
<path d="M143.921 125.196H145.27V127.686L149.473 123.507L150.419 124.447L146.216 128.626H148.72V129.949H144.762L143.921 129.131V125.196Z" fill="#43FF66"/>
<path d="M142.275 116.978V118.319H139.771L143.974 122.497L143.028 123.438L138.825 119.242V121.749H137.494V117.814L138.317 116.978H142.275Z" fill="#43FF66"/>
<path d="M131.417 111.964H132.748V114.471L136.951 110.293L137.897 111.233L133.694 115.411H136.198V116.735H132.24L131.417 115.899V111.964Z" fill="#43FF66"/>
<path d="M136.181 103.851V105.192H133.676L137.879 109.37L136.934 110.31L132.731 106.115V108.622H131.4V104.687L132.223 103.851H136.181Z" fill="#43FF66"/>
<path d="M131.4 99.0982H132.731V101.588L136.934 97.4094L137.879 98.3496L133.676 102.528H136.181V103.851H132.223L131.4 103.033V99.0982Z" fill="#43FF66"/>
<path d="M142.258 91.1941V92.5172H139.736L143.956 96.6957L143.011 97.6358L138.808 93.4574V95.947H137.459V92.0123L138.3 91.1941H142.258Z" fill="#43FF66"/>
<path d="M137.459 86.4237H138.808V88.9308L143.011 84.7523L143.956 85.6751L139.736 89.8709H142.258V91.1941H138.3L137.459 90.3584V86.4237Z" fill="#43FF66"/>
<path d="M132.608 57.4011V56.0605H135.13L130.927 51.8821L131.872 50.9419L136.076 55.1203V52.6307H137.407V56.5654L136.583 57.4011H132.608Z" fill="#43FF66"/>
<path d="M142.485 64.1214V65.4445H139.963L144.167 69.623L143.221 70.5631L139.018 66.3847V68.8917H137.687V64.9571L138.51 64.1214H142.485Z" fill="#43FF66"/>
<path d="M137.407 62.154H136.076V59.6644L131.872 63.8428L130.927 62.9026L135.13 58.7242H132.608V57.4011H136.583L137.407 58.2193V62.154Z" fill="#43FF66"/>
<path d="M143.886 118.789H145.217V121.296L149.42 117.118L150.366 118.04L146.163 122.236H148.685V123.559H144.727L143.886 122.724V118.789Z" fill="#43FF66"/>
<path d="M143.939 112.017H145.27V114.506L149.473 110.328L150.419 111.268L146.216 115.446H148.737V116.769H144.762L143.939 115.951V112.017Z" fill="#43FF66"/>
<path d="M143.991 105.227H145.322V107.734L149.526 103.555L150.471 104.495L146.268 108.674H148.79V109.997H144.815L143.991 109.179V105.227Z" fill="#43FF66"/>
<path d="M144.044 98.4541H145.375V100.944L149.578 96.7653L150.524 97.7054L146.321 101.884H148.825V103.224H144.867L144.044 102.389V98.4541Z" fill="#43FF66"/>
<path d="M144.062 92.6043H145.393V95.0939L149.596 90.9155L150.541 91.8557L146.338 96.0341H148.843V97.3746H144.885L144.062 96.539V92.6043Z" fill="#43FF66"/>
<path d="M144.149 86.1973H145.48V88.7044L149.683 84.526L150.629 85.4661L146.426 89.6445H148.93V90.9677H144.972L144.149 90.132V86.1973Z" fill="#43FF66"/>
<path d="M124.289 131.289H125.62V133.797L129.824 129.618L130.769 130.541L126.566 134.737H129.07V136.06H125.113L124.289 135.224V131.289Z" fill="#43FF66"/>
<path d="M124.289 124.743H125.62V127.233L129.824 123.055L130.769 123.995L126.566 128.173H129.07V129.496H125.113L124.289 128.678V124.743Z" fill="#43FF66"/>
<path d="M124.289 118.18H125.62V120.687L129.824 116.491L130.769 117.431L126.566 121.609H129.07V122.95H125.113L124.289 122.114V118.18Z" fill="#43FF66"/>
<path d="M124.289 111.633H125.62V114.123L129.824 109.945L130.769 110.885L126.566 115.063H129.07V116.386H125.113L124.289 115.568V111.633Z" fill="#43FF66"/>
<path d="M124.622 99.1157H125.953V101.605L130.156 97.4269L131.102 98.367L126.899 102.545H129.403V103.869H125.445L124.622 103.05V99.1157Z" fill="#43FF66"/>
<path d="M124.289 122.097L123.449 122.915H119.491V121.592H121.995L117.792 117.414L118.738 116.473L122.941 120.652V118.162H124.289V122.097Z" fill="#43FF66"/>
<path d="M123.431 110.032L124.254 110.867V114.802H122.923V112.295L118.72 116.473L117.775 115.551L121.978 111.355H119.456V110.032H123.431Z" fill="#43FF66"/>
<path d="M141.592 31.6516V32.9747H139.07L143.273 37.1705L142.328 38.1107L138.125 33.9149V36.4219H136.794V32.4872L137.617 31.6516H141.592Z" fill="#43FF66"/>
<path d="M122.923 70.4238V71.747H120.402L124.605 75.9254L123.659 76.8655L119.456 72.6871V75.1768H118.125V71.2421L118.948 70.4238H122.923Z" fill="#43FF66"/>
<path d="M122.24 63.9124V65.2356H119.719L123.922 69.414L122.993 70.3542L118.773 66.1758V68.6654H117.442V64.7307L118.282 63.9124H122.24Z" fill="#43FF66"/>
<path d="M141.592 25.6799V27.003H139.07L143.273 31.1815L142.328 32.1216L138.125 27.9432V30.4328H136.794V26.4981L137.617 25.6799H141.592Z" fill="#43FF66"/>
<path d="M136.794 20.9269H138.125V23.434L142.328 19.2382L143.273 20.1783L139.07 24.3567H141.592V25.6973H137.617L136.794 24.8616V20.9269Z" fill="#43FF66"/>
<path d="M141.61 12.8138V14.137H139.105L143.308 18.3154L142.363 19.2556L138.16 15.0771V17.5668H136.829V13.6321L137.652 12.8138H141.61Z" fill="#43FF66"/>
<path d="M118.475 90.6543L117.652 89.8187V85.884H118.983V88.391L123.186 84.2126L124.132 85.1527L119.929 89.3312H122.433V90.6543H118.475Z" fill="#43FF66"/>
<path d="M118.475 96.626L117.652 95.8077V91.873H118.983V94.3627L123.186 90.1843L124.132 91.1244L119.929 95.3028H122.433V96.626H118.475Z" fill="#43FF66"/>
<path d="M117.652 97.4443L118.475 96.6086H122.433V97.9492H119.929L124.132 102.128L123.186 103.068L118.983 98.8893V101.379H117.652V97.4443Z" fill="#43FF66"/>
<path d="M118.51 109.492L117.669 108.674V104.739H119.018V107.229L123.221 103.05L124.167 103.99L119.964 108.169H122.468V109.492H118.51Z" fill="#43FF66"/>
<path d="M198.422 120.913L197.599 121.731H193.623V120.408H196.145L191.942 116.23L192.888 115.29L197.091 119.468V116.978H198.422V120.913Z" fill="#43FF66"/>
<path d="M197.564 108.848L198.387 109.684V113.618H197.056V111.129L192.853 115.307L191.907 114.367L196.11 110.188H193.606V108.848H197.564Z" fill="#43FF66"/>
<path d="M192.625 95.4421L191.784 94.6238V90.6892H193.115V93.1788L197.336 89.0004L198.264 89.9405L194.061 94.1189H196.583V95.4421H192.625Z" fill="#43FF66"/>
<path d="M191.784 96.2604L192.625 95.4421H196.583V96.7653H194.061L198.264 100.944L197.336 101.884L193.115 97.7054V100.195H191.784V96.2604Z" fill="#43FF66"/>
<path d="M192.642 108.326L191.819 107.49V103.555H193.15V106.045L197.353 101.866L198.299 102.807L194.096 106.985H196.6V108.326H192.642Z" fill="#43FF66"/>
<path d="M259.735 108.151L258.894 108.987H254.936V107.647H257.458L253.237 103.468L254.183 102.528L258.386 106.706V104.217H259.735V108.151Z" fill="#43FF66"/>
<path d="M258.876 96.1037L259.7 96.922V100.857H258.369V98.367L254.165 102.545L253.22 101.605L257.423 97.4269H254.918V96.1037H258.876Z" fill="#43FF66"/>
<path d="M253.92 82.6979L253.097 81.8622V77.9276H254.428V80.4346L258.631 76.2388L259.577 77.1789L255.374 81.3573H257.878V82.6979H253.92Z" fill="#43FF66"/>
<path d="M253.097 83.4988L253.92 82.6805H257.878V84.0037H255.374L259.577 88.1821L258.631 89.1223L254.428 84.9438V87.4335H253.097V83.4988Z" fill="#43FF66"/>
<path d="M253.955 95.564L253.132 94.7283V90.7936H254.463V93.3007L258.666 89.1223L259.612 90.045L255.409 94.2408H257.913V95.564H253.955Z" fill="#43FF66"/>
<path d="M259.524 75.4727L258.701 76.291H254.743V74.9678H257.248L253.045 70.7894L253.99 69.8493L258.193 74.0277V71.5381H259.524V75.4727Z" fill="#43FF66"/>
<path d="M258.666 63.4076L259.507 64.2432V68.1779H258.158V65.6709L253.955 69.8667L253.01 68.9266L257.23 64.7481H254.708V63.4076H258.666Z" fill="#43FF66"/>
<path d="M253.728 50.0018L252.904 49.1835V45.2488H254.235V47.7385L258.439 43.56L259.384 44.5002L255.181 48.6786H257.686V50.0018H253.728Z" fill="#43FF66"/>
<path d="M252.904 50.82L253.728 50.0018H257.686V51.3249H255.181L259.384 55.5033L258.439 56.4435L254.235 52.2651V54.7547H252.904V50.82Z" fill="#43FF66"/>
<path d="M253.763 62.8679L252.922 62.0496V58.1149H254.253V60.6045L258.474 56.4261L259.402 57.3663L255.199 61.5447H257.721V62.8679H253.763Z" fill="#43FF66"/>
<path d="M130.979 96.6608L130.156 97.4791H126.198V96.1559H128.703L124.5 91.9775L125.445 91.0374L129.648 95.2158V92.7261H130.979V96.6608Z" fill="#43FF66"/>
<path d="M130.086 57.5926L130.927 58.4283V62.363H129.596V59.8559L125.393 64.0343L124.447 63.0942L128.65 58.9158H126.128V57.5926H130.086Z" fill="#43FF66"/>
<path d="M130.927 56.7743L130.086 57.5926H126.128V56.2694H128.65L124.447 52.091L125.393 51.1509L129.596 55.3293V52.8396H130.927V56.7743Z" fill="#43FF66"/>
<path d="M130.086 44.7439L130.927 45.5622V49.4969H129.596V47.0072L125.393 51.1857L124.447 50.2455L128.65 46.0671H126.128V44.7439H130.086Z" fill="#43FF66"/>
<path d="M130.927 43.9082L130.086 44.7439H126.128V43.4034H128.65L124.447 39.2249L125.393 38.2848L129.596 42.4632V39.9736H130.927V43.9082Z" fill="#43FF66"/>
<path d="M122.556 129.966V131.307H120.051L124.254 135.485L123.309 136.425L119.106 132.23V134.737H117.757V130.802L118.598 129.966H122.556Z" fill="#43FF66"/>
<path d="M117.757 125.213H119.106V127.703L123.309 123.525L124.254 124.465L120.051 128.643H122.556V129.966H118.598L117.757 129.148V125.213Z" fill="#43FF66"/>
<path d="M164.044 112.365L165.375 112.382L165.357 114.872L169.595 110.746L170.541 111.686L166.285 115.829L168.807 115.847L168.79 117.17L164.832 117.135L164.009 116.299L164.044 112.365Z" fill="#43FF66"/>
<path d="M164.131 105.627L165.462 105.644L165.427 108.134L169.683 104.008L170.611 104.948L166.373 109.092L168.877 109.109V110.432L164.902 110.397L164.079 109.562L164.131 105.627Z" fill="#43FF66"/>
<path d="M164.044 92.5346L165.375 92.552L165.357 95.0417L169.595 90.8981L170.524 91.8556L166.285 95.9992L168.79 96.0167V97.3398L164.832 97.305L164.009 96.4693L164.044 92.5346Z" fill="#43FF66"/>
<path d="M280.4 67.203H281.731V69.6926L285.934 65.5142L286.88 66.4543L282.676 70.6327H285.181V71.9559H281.223L280.4 71.1376V67.203Z" fill="#43FF66"/>
<path d="M280.4 54.3369H281.731V56.8439L285.934 52.6655L286.88 53.6057L282.676 57.7841H285.181V59.1072H281.223L280.4 58.2716V54.3369Z" fill="#43FF66"/>
<path d="M280.4 41.4883H281.731V43.9779L285.934 39.7995L286.88 40.7396L282.676 44.918H285.181V46.2412H281.223L280.4 45.4229V41.4883Z" fill="#43FF66"/>
<path d="M218.702 31.9301V33.2533H216.18L220.383 37.4317L219.437 38.3718L215.234 34.1934V36.6831H213.903V32.7484L214.744 31.9301H218.702Z" fill="#43FF66"/>
<path d="M218.702 25.9585V27.2816H216.18L220.383 31.46L219.437 32.4002L215.234 28.2218V30.7114H213.903V26.7767L214.744 25.9585H218.702Z" fill="#43FF66"/>
<path d="M213.903 21.2055H215.234V23.6952L219.437 19.5167L220.383 20.4569L216.18 24.6353H218.702V25.9585H214.744L213.903 25.1402V21.2055Z" fill="#43FF66"/>
<path d="M218.719 13.075V14.4156H216.215L220.418 18.594L219.472 19.5341L215.269 15.3557V17.8453H213.938V13.9107L214.761 13.075H218.719Z" fill="#43FF66"/>
<path d="M213.711 79.4248H215.042V81.9145L219.245 77.736L220.19 78.6762L215.987 82.8546H218.492V84.1778H214.534L213.711 83.3595V79.4248Z" fill="#43FF66"/>
<path d="M213.711 66.5588H215.042V69.0484L219.245 64.87L220.19 65.8101L215.987 69.9886H218.492V71.3291H214.534L213.711 70.4935V66.5588Z" fill="#43FF66"/>
<path d="M213.711 53.7101H215.042V56.1998L219.245 52.0214L220.19 52.9615L215.987 57.1399H218.492V58.4631H214.534L213.711 57.6448V53.7101Z" fill="#43FF66"/>
<path d="M277.458 76.0473V77.3879H274.936L279.139 81.5663L278.193 82.5064L273.99 78.328V80.8176H272.659V76.883L273.482 76.0473H277.458Z" fill="#43FF66"/>
<path d="M277.458 70.0756V71.3988H274.936L279.139 75.5772L278.193 76.5173L273.99 72.3389V74.846H272.659V70.9113L273.482 70.0756H277.458Z" fill="#43FF66"/>
<path d="M272.659 65.3227H273.99V67.8297L278.193 63.6513L279.139 64.5914L274.936 68.7699H277.458V70.093H273.482L272.659 69.2573V65.3227Z" fill="#43FF66"/>
<path d="M277.475 57.2096V58.5327H274.971L279.174 62.7112L278.228 63.6513L274.025 59.4729V61.9799H272.694V58.0278L273.517 57.2096H277.475Z" fill="#43FF66"/>
<path d="M272.449 123.542H273.797V126.032L278.001 121.853L278.946 122.793L274.743 126.972H277.247V128.312H273.29L272.449 127.477V123.542Z" fill="#43FF66"/>
<path d="M272.449 110.693H273.797V113.183L278.001 109.005L278.946 109.945L274.743 114.123H277.247V115.446H273.29L272.449 114.628V110.693Z" fill="#43FF66"/>
<path d="M272.449 97.8273H273.797V100.317L278.001 96.1385L278.946 97.0787L274.743 101.257H277.247V102.598H273.29L272.449 101.762V97.8273Z" fill="#43FF66"/>
<path d="M242.222 29.4753V30.7985H239.7L243.903 34.9769L242.957 35.917L238.754 31.7386V34.2282H237.423V30.2936L238.264 29.4753H242.222Z" fill="#43FF66"/>
<path d="M242.222 23.4862V24.8094H239.7L243.903 29.0052L242.957 29.9279L238.754 25.7495V28.2566H237.423V24.3219L238.264 23.4862H242.222Z" fill="#43FF66"/>
<path d="M237.423 18.7333H238.754V21.2403L242.975 17.0619L243.903 18.002L239.7 22.1805H242.222V23.5036H238.264L237.423 22.6679V18.7333Z" fill="#43FF66"/>
<path d="M242.239 10.6201V11.9433H239.735L243.938 16.1217L242.992 17.0619L238.789 12.8835V15.3905H237.458V11.4558L238.281 10.6201H242.239Z" fill="#43FF66"/>
<path d="M237.23 76.9526H238.561V79.4597L242.764 75.2812L243.71 76.204L239.507 80.3998H242.011V81.723H238.054L237.23 80.8873V76.9526Z" fill="#43FF66"/>
<path d="M237.23 64.1039H238.561V66.5936L242.764 62.4152L243.71 63.3553L239.507 67.5337H242.011V68.8569H238.054L237.23 68.0386V64.1039Z" fill="#43FF66"/>
<path d="M237.23 51.2379H238.561V53.7449L242.764 49.5491L243.71 50.4893L239.507 54.6851H242.011V56.0083H238.054L237.23 55.1726V51.2379Z" fill="#43FF66"/>
<path d="M57.5125 83.8644L58.3531 84.6827V88.6174H57.0222V86.1277L52.819 90.3061L51.8734 89.366L56.0765 85.1876H53.5546V83.8644H57.5125Z" fill="#43FF66"/>
<path d="M63.1167 91.0896L63.9573 91.9253V95.86H62.6263V93.3703L58.4057 97.5487L57.4775 96.6086L61.6806 92.4302H59.1587V91.0896H63.1167Z" fill="#43FF66"/>
<path d="M57.5125 77.8927L58.3531 78.711V82.6457H57.0222V80.1561L52.819 84.3345L51.8734 83.3943L56.0765 79.2159H53.5546V77.8927H57.5125Z" fill="#43FF66"/>
<path d="M58.3531 77.0745L57.5125 77.8927H53.5546V76.5696H56.0765L51.8734 72.3912L52.819 71.451L57.0222 75.6294V73.1398H58.3531V77.0745Z" fill="#43FF66"/>
<path d="M57.495 65.0267L58.3181 65.845V69.7796H56.9871V67.29L52.784 71.4684L51.8383 70.5283L56.0414 66.3499H53.5371V65.0267H57.495Z" fill="#43FF66"/>
<path d="M58.5633 135.294L57.7227 136.112H53.7648V134.789H56.2691L52.066 130.611L53.0117 129.67L57.2148 133.849V131.359H58.5633V135.294Z" fill="#43FF66"/>
<path d="M58.5633 122.428L57.7227 123.263H53.7648V121.923H56.2691L52.066 117.744L53.0117 116.804L57.2148 121V118.493H58.5633V122.428Z" fill="#43FF66"/>
<path d="M58.4583 109.074L57.6176 109.892H53.6597V108.569H56.1815L51.9784 104.391L52.9066 103.451L57.1273 107.629V105.14H58.4583V109.074Z" fill="#43FF66"/>
<path d="M219.402 103.938H220.733V106.445L224.936 102.267L225.882 103.207L221.679 107.385H224.201V108.709H220.225L219.402 107.89V103.938Z" fill="#43FF66"/>
<path d="M219.455 97.1657H220.786V99.6553L224.989 95.4769L225.935 96.4171L221.731 100.595H224.236V101.936H220.278L219.455 101.1V97.1657Z" fill="#43FF66"/>
<path d="M219.507 90.3932H220.838V92.8828L225.041 88.7044L225.987 89.6445L221.784 93.823H224.288V95.1461H220.33L219.507 94.3279V90.3932Z" fill="#43FF66"/>
<path d="M219.56 83.6033H220.891V86.1103L225.094 81.9319L226.04 82.872L221.837 87.0505H224.341V88.3736H220.383L219.56 87.5379V83.6033Z" fill="#43FF66"/>
<path d="M219.612 76.8307H220.943V79.3204L225.146 75.142L226.092 76.0821L221.889 80.2605H224.393V81.5837H220.435L219.612 80.7654V76.8307Z" fill="#43FF66"/>
<path d="M219.665 70.0582H220.996V72.5478L225.199 68.3694L226.145 69.3096L221.942 73.488H224.446V74.8111H220.488L219.665 73.9929V70.0582Z" fill="#43FF66"/>
<path d="M246.985 76.5174L246.162 75.6817L246.18 71.747H247.528L247.511 74.254L251.731 70.093L252.677 71.0332L248.439 75.1942L250.961 75.2116L250.943 76.5348L246.985 76.5174Z" fill="#43FF66"/>
<path d="M246.968 82.489L246.144 81.6533L246.162 77.7186L247.493 77.7361L247.475 80.2257L251.696 76.0647L252.642 77.0048L248.421 81.1658L250.925 81.1833V82.5064L246.968 82.489Z" fill="#43FF66"/>
<path d="M246.933 95.3551L246.109 94.5194L246.127 90.5847L247.458 90.6021L247.44 93.0918L251.661 88.9308L252.607 89.8709L248.386 94.0319L250.89 94.0493V95.3725L246.933 95.3551Z" fill="#43FF66"/>
<path d="M246.127 24.6005L246.95 23.7822L250.926 23.7996L250.908 25.1228H248.404L252.589 29.3186L251.644 30.2588L247.458 26.0455L247.44 28.5526L246.109 28.5352L246.127 24.6005Z" fill="#43FF66"/>
<path d="M246.144 31.3904L246.985 30.5721L250.943 30.5895L250.926 31.9127L248.421 31.8953L252.607 36.0911L251.661 37.0313L247.475 32.8354L247.458 35.3251H246.127L246.144 31.3904Z" fill="#43FF66"/>
<path d="M246.162 38.1629L247.003 37.3446L250.961 37.3621L250.943 38.6852H248.439L252.624 42.8811L251.679 43.8212L247.493 39.6079L247.475 42.115L246.144 42.0976L246.162 38.1629Z" fill="#43FF66"/>
<path d="M246.179 44.9529L247.02 44.1172L250.978 44.1346L250.961 45.4752L248.456 45.4578L252.642 49.6536L251.696 50.5937L247.51 46.3979L247.493 48.8875H246.162L246.179 44.9529Z" fill="#43FF66"/>
<path d="M246.197 51.7254L247.038 50.9071L250.996 50.9245L250.978 52.2477L248.474 52.2303L252.659 56.4435L251.714 57.3662L247.528 53.1704L247.511 55.66H246.18L246.197 51.7254Z" fill="#43FF66"/>
<path d="M246.215 58.4979L247.055 57.6796L251.013 57.697L250.996 59.0202H248.491L252.677 63.216L251.731 64.1562L247.546 59.9429L247.528 62.45L246.197 62.4326L246.215 58.4979Z" fill="#43FF66"/>
<path d="M27.6004 129.601V130.924H25.0786L29.2817 135.102L28.3359 136.042L24.1328 131.864V134.371H22.8018V130.436L23.6425 129.601H27.6004Z" fill="#43FF66"/>
<path d="M27.6004 123.629V124.952H25.0786L29.2817 129.131L28.3359 130.071L24.1328 125.892V128.382H22.8018V124.447L23.6425 123.629H27.6004Z" fill="#43FF66"/>
<path d="M22.8018 118.876H24.1328V121.366L28.3359 117.187L29.2817 118.127L25.0786 122.306H27.6004V123.646H23.6425L22.8018 122.811V118.876Z" fill="#43FF66"/>
<path d="M27.618 110.763V112.086H25.1136L29.3167 116.265L28.371 117.205L24.1678 113.026V115.516H22.8369V111.581L23.66 110.763H27.618Z" fill="#43FF66"/>
<path d="M21.4534 129.949L22.2765 130.785V134.719H20.9455V132.212L16.7424 136.391L15.7967 135.451L19.9998 131.272H17.4779V129.949H21.4534Z" fill="#43FF66"/>
<path d="M16.4972 116.543L15.6741 115.725V111.79H17.005V114.28L21.2082 110.101L22.1539 111.042L17.9507 115.22H20.4551V116.543H16.4972Z" fill="#43FF66"/>
<path d="M15.6741 117.361L16.4972 116.526H20.4551V117.866H17.9507L22.1539 122.045L21.2082 122.985L17.005 118.806V121.296H15.6741V117.361Z" fill="#43FF66"/>
<path d="M16.5322 129.409L15.6916 128.591V124.656H17.0401V127.146L21.2432 122.967L22.1889 123.908L17.9858 128.086H20.4901V129.409H16.5322Z" fill="#43FF66"/>
<path d="M4.99118 95.9992V97.3398H2.48685L6.68997 101.518L5.74423 102.458L1.54111 98.2625V100.77H0.192627V96.8349L1.03326 95.9992H4.99118Z" fill="#43FF66"/>
<path d="M4.99118 90.0276V91.3507H2.48685L6.68997 95.5292L5.74423 96.4693L1.54111 92.2909V94.7979H0.192627V90.8459L1.03326 90.0276H4.99118Z" fill="#43FF66"/>
<path d="M0.192627 85.2746H1.54111V87.7817L5.74423 83.5858L6.68997 84.526L2.48685 88.7218H4.99118V90.045H1.03326L0.192627 89.2093V85.2746Z" fill="#43FF66"/>
<path d="M5.02625 77.1615V78.4847H2.50436L6.70749 82.6631L5.76178 83.6032L1.55865 79.4248V81.9145H0.227692V77.9798L1.0683 77.1615H5.02625Z" fill="#43FF66"/>
<path d="M0 130.645H1.33096V133.135L5.53409 128.957L6.47977 129.897L2.27667 134.075H4.78104V135.398H0.82312L0 134.58V130.645Z" fill="#43FF66"/>
<path d="M0 117.779H1.33096V120.269L5.53409 116.09L6.47977 117.031L2.27667 121.209H4.78104V122.55H0.82312L0 121.714V117.779Z" fill="#43FF66"/>
<path d="M8.89655 91.1418L9.73718 90.3235L13.6952 90.341L13.6776 91.6641H11.1732L15.3589 95.86L14.4131 96.8001L10.2276 92.5869L10.21 95.0939L8.87906 95.0765L8.89655 91.1418Z" fill="#43FF66"/>
<path d="M8.91409 97.9318L9.75473 97.0961L13.7126 97.1135V98.4541L11.1908 98.4366L15.3764 102.632L14.4307 103.573L10.2451 99.3768L10.2276 101.866H8.89661L8.91409 97.9318Z" fill="#43FF66"/>
<path d="M8.93158 104.704L9.77222 103.886L13.7302 103.903V105.227L11.2083 105.209L15.3939 109.422L14.4482 110.345L10.2626 106.149L10.2451 108.639H8.91409L8.93158 104.704Z" fill="#43FF66"/>
<path d="M8.94907 111.477L9.78973 110.659L13.7477 110.676V111.999H11.2258L15.4114 116.195L14.4657 117.135L10.2801 112.922L10.2625 115.429L8.93158 115.412L8.94907 111.477Z" fill="#43FF66"/>
<path d="M8.96664 118.267L9.80725 117.448L13.7652 117.466V118.789L11.2433 118.772L15.4289 122.967L14.4832 123.908L10.2976 119.712L10.2801 122.201H8.94913L8.96664 118.267Z" fill="#43FF66"/>
<path d="M8.98413 125.039L9.82474 124.221L13.7827 124.238V125.562H11.2608L15.4464 129.757L14.5007 130.698L10.3152 126.484L10.2976 128.991L8.96664 128.974L8.98413 125.039Z" fill="#43FF66"/>
<path d="M172.45 42.0976L173.273 42.9333V46.868H171.942V44.3609L167.739 48.5393L166.793 47.6166L170.996 43.4208H168.492V42.0976H172.45Z" fill="#43FF66"/>
<path d="M172.45 36.1259L173.273 36.9442V40.8789H171.942V38.3892L167.739 42.5677L166.793 41.6275L170.996 37.4491H168.492V36.1259H172.45Z" fill="#43FF66"/>
<path d="M173.273 35.3077L172.45 36.1434H168.492V34.8028H170.996L166.793 30.6244L167.739 29.6842L171.942 33.8801V31.373H173.273V35.3077Z" fill="#43FF66"/>
<path d="M172.415 23.2599L173.256 24.0782V28.0129H171.907V25.5232L167.704 29.7016L166.758 28.7615L170.961 24.5831H168.457V23.2599H172.415Z" fill="#43FF66"/>
<path d="M161.382 88.0951L160.541 87.2594V83.3247H161.872V85.8143L166.075 81.6359L167.021 82.576L162.818 86.7545H165.34V88.0951H161.382Z" fill="#43FF66"/>
<path d="M161.312 81.2877L160.471 80.452V76.5173H161.802V79.007L166.005 74.8286L166.951 75.7687L162.748 79.9471H165.27V81.2877H161.312Z" fill="#43FF66"/>
<path d="M161.242 74.4804L160.401 73.6447V69.71H161.732V72.2171L165.935 68.0212L166.881 68.9614L162.678 73.1398H165.2V74.4804H161.242Z" fill="#43FF66"/>
<path d="M161.154 67.673L160.331 66.8373V62.9027H161.662V65.4097L165.865 61.2139L166.811 62.154L162.608 66.3499H165.13V67.673H161.154Z" fill="#43FF66"/>
<path d="M173.518 87.2246L172.678 88.0428H168.72V86.7197H171.242L167.039 82.5412L167.984 81.6011L172.187 85.7795V83.2899H173.518V87.2246Z" fill="#43FF66"/>
<path d="M173.466 80.4346L172.643 81.2703H168.667V79.9471H171.189L166.986 75.7687L167.932 74.8286L172.135 79.007V76.5H173.466V80.4346Z" fill="#43FF66"/>
<path d="M173.413 73.6621L172.59 74.4978H168.632V73.1572H171.137L166.933 68.9788L167.879 68.0386L172.082 72.2171V69.7274H173.413V73.6621Z" fill="#43FF66"/>
<path d="M173.361 66.8896L172.538 67.7078H168.58V66.3847H171.084L166.881 62.2063L167.827 61.2661L172.03 65.4445V62.9549H173.361V66.8896Z" fill="#43FF66"/>
<path d="M173.308 60.0996L172.485 60.9353H168.527V59.6121H171.031L166.828 55.4163L167.774 54.4762L171.977 58.672V56.1649H173.308V60.0996Z" fill="#43FF66"/>
<path d="M27.7055 105.157V106.48H25.1836L29.3867 110.659L28.4586 111.599L24.2379 107.42V109.91H22.9069V105.975L23.7476 105.157H27.7055Z" fill="#43FF66"/>
<path d="M27.7055 99.1679V100.491H25.1836L29.3867 104.687L28.4586 105.61L24.2379 101.431V103.938H22.9069V100.004L23.7476 99.1679H27.7055Z" fill="#43FF66"/>
<path d="M22.9069 94.4149H24.2379V96.922L28.4586 92.7435L29.3867 93.6837L25.1836 97.8621H27.7055V99.1853H23.7476L22.9069 98.3496V94.4149Z" fill="#43FF66"/>
<path d="M27.7931 86.3366L27.7581 87.6598L25.2537 87.6076L29.3867 91.873L28.4235 92.7958L24.2905 88.5303L24.2379 91.0374L22.9069 91.0025L22.977 87.0679L23.8351 86.267L27.7931 86.3366Z" fill="#43FF66"/>
<path d="M44.6405 129.74V131.063H42.1361L46.3393 135.242L45.3936 136.182L41.1905 132.003V134.51H39.8419V130.576L40.6826 129.74H44.6405Z" fill="#43FF66"/>
<path d="M30.5251 119.015V117.692H33.047L28.8438 113.514L29.7895 112.574L33.9926 116.752V114.262H35.3236V118.197L34.483 119.015H30.5251Z" fill="#43FF66"/>
<path d="M31.033 103.782V102.441H33.5548L29.3517 98.2626L30.2799 97.3224L34.5005 101.501V99.0112H35.8315V102.946L34.9909 103.782H31.033Z" fill="#43FF66"/>
<path d="M31.103 96.9742V95.6336H33.6248L29.4217 91.4552L30.3675 90.5151L34.5706 94.6935V92.2038H35.9016V96.1385L35.0609 96.9742H31.103Z" fill="#43FF66"/>
<path d="M31.173 90.1669V88.8437H33.6949L29.4918 84.6479L30.4375 83.7077L34.6406 87.9035V85.3965H35.9716V89.3312L35.131 90.1669H31.173Z" fill="#43FF66"/>
<path d="M31.2431 83.3595V82.0364H33.765L29.5619 77.8405L30.5076 76.9178L34.7107 81.0962V78.5892H36.0417V82.5238L35.2185 83.3595H31.2431Z" fill="#43FF66"/>
<path d="M21.2082 98.4366V99.7772H18.7039L22.9069 103.956L21.9612 104.896L17.7582 100.7V103.207H16.4097V99.2723L17.2503 98.4366H21.2082Z" fill="#43FF66"/>
<path d="M51.1728 76.4129L52.0134 77.2486V81.1832H50.6825V78.6936L46.4619 82.872L45.5161 81.9319L49.7368 77.7535H47.2149V76.4129H51.1728Z" fill="#43FF66"/>
<path d="M51.1728 70.4412L52.0134 71.2769V75.2116H50.6825V72.7046L46.4619 76.883L45.5161 75.9428L49.7368 71.7644H47.2149V70.4412H51.1728Z" fill="#43FF66"/>
<path d="M40.1047 122.41L39.2816 121.575V117.64H40.6125V120.147L44.8156 115.951L45.7614 116.891L41.5583 121.07H44.0626V122.41H40.1047Z" fill="#43FF66"/>
<path d="M40.0346 115.603L39.2115 114.767V110.833H40.5425V113.34L44.7456 109.161L45.6913 110.084L41.4882 114.28H43.9925V115.603H40.0346Z" fill="#43FF66"/>
<path d="M39.9645 108.796L39.1414 107.96V104.025H40.4724V106.532L44.6755 102.354L45.6212 103.294L41.4181 107.472H43.9225V108.796H39.9645Z" fill="#43FF66"/>
<path d="M39.8945 101.988L39.0539 101.153V97.218H40.4024V99.725L44.6055 95.5466L45.5512 96.4867L41.3481 100.665H43.8524V101.988H39.8945Z" fill="#43FF66"/>
<path d="M52.2411 121.54L51.418 122.376H47.4601V121.035H49.9644L45.7614 116.857L46.7071 115.916L50.9102 120.095V117.605H52.2411V121.54Z" fill="#43FF66"/>
<path d="M52.1886 114.767L51.3655 115.586H47.4076V114.262H49.9119L45.7088 110.084L46.6545 109.144L50.8576 113.322V110.833H52.1886V114.767Z" fill="#43FF66"/>
<path d="M52.1536 107.977L51.313 108.813H47.355V107.472H49.8594L45.6563 103.294L46.602 102.354L50.8051 106.55V104.043H52.1536V107.977Z" fill="#43FF66"/>
<path d="M52.101 101.205L51.2604 102.023H47.3025V100.7H49.8068L45.6037 96.5215L46.5494 95.5814L50.7525 99.7598V97.2702H52.101V101.205Z" fill="#43FF66"/>
<path d="M52.0485 94.4149L51.2079 95.2506H47.2499V93.9274H49.7718L45.5512 89.749L46.4969 88.8089L50.7 92.9873V90.4802H52.0485V94.4149Z" fill="#43FF66"/>
<path d="M196.53 87.2768L195.69 88.1125H191.732V86.7893H194.254L190.051 82.6109L190.996 81.6707L195.199 85.8492V83.3421H196.53V87.2768Z" fill="#43FF66"/>
<path d="M196.53 80.7306L195.69 81.5489H191.732V80.2257H194.254L190.051 76.0473L190.996 75.1071L195.199 79.2855V76.7959H196.53V80.7306Z" fill="#43FF66"/>
<path d="M196.53 67.2204L195.69 68.056H191.732V66.7155H194.254L190.051 62.537L190.996 61.5969L195.199 65.7753V63.2857H196.53V67.2204Z" fill="#43FF66"/>
<path d="M211.714 38.2326L212.537 39.0682V43.0029H211.206V40.5133L207.003 44.6917L206.057 43.7516L210.26 39.5731H207.739V38.2326H211.714Z" fill="#43FF66"/>
<path d="M211.714 32.2609L212.537 33.0966V37.0313H211.206V34.5242L207.003 38.7027L206.057 37.7625L210.26 33.5841H207.739V32.2609H211.714Z" fill="#43FF66"/>
<path d="M212.537 31.4426L211.714 32.2783H207.739V30.9551H210.26L206.057 26.7767L207.003 25.8366L211.206 30.015V27.5079H212.537V31.4426Z" fill="#43FF66"/>
<path d="M211.679 19.3948L212.502 20.2131V24.1652H211.171V21.6581L206.968 25.8366L206.022 24.8964L210.225 20.718H207.721V19.3948H211.679Z" fill="#43FF66"/>
<path d="M200.628 84.23L199.805 83.3943V79.4597H201.136V81.9667L205.339 77.7709L206.285 78.711L202.082 82.8895H204.586V84.23H200.628Z" fill="#43FF66"/>
<path d="M200.558 77.4227L199.735 76.587V72.6523H201.066V75.1594L205.269 70.9809L206.215 71.9037L202.012 76.0995H204.516V77.4227H200.558Z" fill="#43FF66"/>
<path d="M200.488 70.6153L199.665 69.7796V65.845H200.996V68.352L205.199 64.1736L206.145 65.1137L201.942 69.2922H204.446V70.6153H200.488Z" fill="#43FF66"/>
<path d="M200.418 63.808L199.595 62.9723V59.0376H200.926V61.5447L205.129 57.3662L206.075 58.3064L201.872 62.4848H204.376V63.808H200.418Z" fill="#43FF66"/>
<path d="M212.835 90.132L211.994 90.9677H208.036V89.6445H210.541L206.338 85.4661L207.283 84.526L211.486 88.7044V86.1973H212.835V90.132Z" fill="#43FF66"/>
<path d="M212.782 83.3595L211.942 84.1952H207.984V82.8546H210.506L206.285 78.6762L207.231 77.7361L211.434 81.9145V79.4248H212.782V83.3595Z" fill="#43FF66"/>
<path d="M212.73 76.587L211.889 77.4053H207.931V76.0821H210.453L206.25 71.9037L207.178 70.9635L211.399 75.142V72.6523H212.73V76.587Z" fill="#43FF66"/>
<path d="M212.677 69.7971L211.837 70.6327H207.879V69.3096H210.401L206.197 65.1137L207.143 64.1736L211.346 68.3694V65.8624H212.677V69.7971Z" fill="#43FF66"/>
<path d="M212.625 63.0245L211.784 63.8428H207.826V62.5196H210.348L206.145 58.3412L207.091 57.4011L211.294 61.5795V59.0898H212.625V63.0245Z" fill="#43FF66"/>
<path d="M212.572 56.2346L211.732 57.0703H207.774V55.7471H210.295L206.092 51.5687L207.038 50.6286L211.241 54.807V52.2999H212.572V56.2346Z" fill="#43FF66"/>
<path d="M182.362 55.573L182.345 54.2324H184.867L180.629 50.0714L181.574 49.1313L185.795 53.2923V50.7852H187.126L187.143 54.7199L186.32 55.5556L182.362 55.573Z" fill="#43FF66"/>
<path d="M182.38 61.5447V60.2215L184.884 60.2041L180.664 56.0431L181.609 55.1029L185.83 59.2639L185.812 56.7569H187.143L187.178 60.6916L186.338 61.5272L182.38 61.5447Z" fill="#43FF66"/>
<path d="M187.196 66.2628L185.865 66.2802L185.847 63.7732L181.662 67.9864L180.716 67.0463L184.902 62.8504H182.397L182.38 61.5272L186.338 61.5098L187.178 62.3281L187.196 66.2628Z" fill="#43FF66"/>
<path d="M182.415 74.4107V73.0876L184.919 73.0701L180.699 68.9091L181.644 67.969L185.865 72.13L185.847 69.6404L187.178 69.6229L187.196 73.5576L186.373 74.3933L182.415 74.4107Z" fill="#43FF66"/>
<path d="M187.196 7.57338L185.865 7.59081L185.847 5.08376L181.662 9.29699L180.716 8.35684L184.902 4.16103H182.397L182.38 2.83786L186.355 2.82045L187.178 3.63872L187.196 7.57338Z" fill="#43FF66"/>
<path d="M187.178 14.3633H185.847L185.83 11.8737L181.644 16.0695L180.699 15.1294L184.884 10.9336L182.38 10.951L182.362 9.62781L186.338 9.59298L187.161 10.4287L187.178 14.3633Z" fill="#43FF66"/>
<path d="M187.161 21.1358L185.83 21.1533L185.812 18.6462L181.627 22.842L180.681 21.9193L184.867 17.7235H182.362L182.345 16.4003L186.303 16.3829L187.143 17.2012L187.161 21.1358Z" fill="#43FF66"/>
<path d="M187.143 27.9258H185.812L185.795 25.4361L181.609 29.632L180.664 28.6918L184.849 24.496L182.345 24.5134L182.327 23.1728L186.285 23.1554L187.126 23.9911L187.143 27.9258Z" fill="#43FF66"/>
<path d="M187.126 34.6983H185.795L185.777 32.2087L181.592 36.4045L180.646 35.4818L184.832 31.2685L182.327 31.2859L182.31 29.9628L186.268 29.9454L187.108 30.7636L187.126 34.6983Z" fill="#43FF66"/>
<path d="M187.108 41.4708L185.777 41.4883L185.76 38.9812L181.574 43.1944L180.629 42.2543L184.814 38.0585H182.31L182.292 36.7353L186.25 36.7179L187.091 37.5362L187.108 41.4708Z" fill="#43FF66"/>
<path d="M98.3527 135.311H97.0042V132.822L92.8011 137L91.8554 136.06L96.0585 131.881H93.5542V130.558H97.5121L98.3527 131.377V135.311Z" fill="#43FF66"/>
<path d="M98.2652 121.592H96.9342V119.102L92.731 123.281L91.7853 122.341L95.9885 118.162H93.4666V116.822H97.4245L98.2652 117.657V121.592Z" fill="#43FF66"/>
<path d="M96.689 123.281V124.604H94.1671L98.3702 128.782L97.4245 129.723L93.2214 125.544V128.034H91.8905V124.099L92.7135 123.281H96.689Z" fill="#43FF66"/>
<path d="M98.1776 108.099H96.8466V105.592L92.6435 109.771L91.6978 108.83L95.9009 104.652H93.3965V103.329H97.3545L98.1776 104.147V108.099Z" fill="#43FF66"/>
<path d="M96.6014 109.771V111.094H94.0971L98.3002 115.29L97.3545 116.23L93.1514 112.034V114.541H91.8029V110.606L92.6435 109.771L96.6014 109.771Z" fill="#43FF66"/>
<path d="M72.3635 103.294H73.712V105.801L77.9151 101.623L78.8608 102.563L74.6577 106.741H77.1621V108.064H73.2041L72.3635 107.246V103.294Z" fill="#43FF66"/>
<path d="M71.8906 86.0929H73.2216V88.5826L77.4247 84.4041L78.3704 85.3443L74.1673 89.5227H76.6717V90.8459H72.7137L71.8906 90.0276V86.0929Z" fill="#43FF66"/>
<path d="M72.4511 117.031H73.7821V119.52L77.9852 115.342L78.9309 116.282L74.7278 120.46H77.2496V121.784H73.2917L72.4511 120.965V117.031Z" fill="#43FF66"/>
<path d="M74.0273 115.342V114.019H76.5491L72.346 109.84L73.2917 108.9L77.4948 113.079V110.589H78.8258V114.524L77.9852 115.342H74.0273Z" fill="#43FF66"/>
<path d="M72.5386 130.523H73.8696V133.031L78.0727 128.835L79.0184 129.775L74.8153 133.953H77.3197V135.294H73.3617L72.5386 134.458V130.523Z" fill="#43FF66"/>
<path d="M74.1148 128.835V127.511H76.6191L72.416 123.333L73.3617 122.393L77.5648 126.571V124.082H78.9133V128.016L78.0727 128.835L74.1148 128.835Z" fill="#43FF66"/>
<path d="M58.4583 105.157H59.7892V107.647L63.9923 103.468L64.938 104.408L60.7349 108.587H63.2393V109.91H59.2813L58.4583 109.092V105.157Z" fill="#43FF66"/>
<path d="M58.4932 118.493H59.8242V120.983L64.0273 116.804L64.973 117.744L60.7699 121.923H63.2743V123.263H59.3163L58.4932 122.428V118.493Z" fill="#43FF66"/>
<path d="M60.0694 116.247V114.924H62.5738L58.3707 110.746L59.3164 109.805L63.5195 113.984V111.477H64.8505V115.411L64.0273 116.247H60.0694Z" fill="#43FF66"/>
<path d="M58.5633 131.429H59.8943V133.918L64.0974 129.74L65.0431 130.68L60.84 134.859H63.3618V136.199H59.4039L58.5633 135.363V131.429Z" fill="#43FF66"/>
<path d="M60.157 129.74V128.417H62.6613L58.4583 124.238L59.4039 123.298L63.6071 127.477V124.987H64.938V128.922L64.1149 129.74H60.157Z" fill="#43FF66"/>
<path d="M98.1601 94.8154H96.8291V92.3257L92.626 96.5041L91.6803 95.564L95.8834 91.3856H93.3615V90.0624H97.3195L98.1601 90.8807V94.8154Z" fill="#43FF66"/>
<path d="M96.5839 96.5041V97.8273H94.062L98.2652 102.006L97.3195 102.946L93.1163 98.7675V101.257H91.7853V97.3224L92.6085 96.5041H96.5839Z" fill="#43FF66"/>
<path d="M90.9622 96.4693L91.7853 97.305V101.24H90.4544V98.7326L86.2513 102.928L85.3056 101.988L89.5087 97.8099H87.0043V96.4693H90.9622Z" fill="#43FF66"/>
<path d="M90.9622 90.4977L91.7853 91.3159V95.268H90.4544V92.761L86.2513 96.9394L85.3056 95.9992L89.5087 91.8208H87.0043V90.4977H90.9622Z" fill="#43FF66"/>
<path d="M91.7853 89.6794L90.9622 90.5151H87.0043V89.1919H89.5087L85.3056 84.9961L86.2513 84.0559L90.4544 88.2518V85.7447H91.7853V89.6794Z" fill="#43FF66"/>
<path d="M90.9272 77.6316L91.7678 78.4499V82.3845H90.4194V79.8949L86.2162 84.0733L85.2706 83.1332L89.4736 78.9548H86.9693V77.6316H90.9272Z" fill="#43FF66"/>
<path d="M79.824 135.659L78.9834 134.824V130.889H80.3144V133.379L84.5175 129.2L85.4632 130.14L81.2601 134.319H83.7819V135.659H79.824Z" fill="#43FF66"/>
<path d="M79.7365 128.852L78.9133 128.016V124.082L80.2443 124.082V126.589L84.4474 122.393L85.3931 123.333L81.19 127.512H83.7119V128.852H79.7365Z" fill="#43FF66"/>
<path d="M79.6664 122.045L78.8433 121.209V117.274H80.1743V119.781L84.3774 115.603L85.3231 116.526L81.12 120.722H83.6243V122.045H79.6664Z" fill="#43FF66"/>
<path d="M91.978 134.824L91.1374 135.642H87.1794V134.319H89.7013L85.4982 130.14L86.4439 129.2L90.647 133.379V130.872H91.978V134.824Z" fill="#43FF66"/>
<path d="M91.9255 128.034L91.1024 128.869H87.1269V127.529H89.6488L85.4457 123.35L86.3914 122.41L90.5945 126.589V124.099H91.9255V128.034Z" fill="#43FF66"/>
<path d="M91.8729 121.261L91.0498 122.08H87.0919V120.756H89.5962L85.3931 116.578L86.3388 115.638L90.5419 119.816V117.327H91.8729V121.261Z" fill="#43FF66"/>
<path d="M91.8204 114.471L90.9973 115.307H87.0394V113.984H89.5437L85.3406 109.788L86.2863 108.865L90.4894 113.044V110.537H91.8204V114.471Z" fill="#43FF66"/>
<path d="M100.857 109.945V108.622L103.379 108.604L99.1408 104.443L100.087 103.503L104.307 107.664L104.29 105.157H105.638L105.656 109.092L104.833 109.927L100.857 109.945Z" fill="#43FF66"/>
<path d="M100.892 115.916V114.593L103.396 114.576L99.1758 110.415L100.122 109.475L104.342 113.636L104.325 111.146L105.656 111.129L105.673 115.063L104.85 115.899L100.892 115.916Z" fill="#43FF66"/>
<path d="M105.708 120.635L104.377 120.652L104.36 118.145L100.174 122.358L99.2283 121.418L103.414 117.222L100.91 117.24L100.892 115.899L104.85 115.882L105.691 116.7L105.708 120.635Z" fill="#43FF66"/>
<path d="M100.927 128.782V127.459L103.431 127.442L99.2109 123.281L100.157 122.341L104.377 126.502L104.36 124.012L105.691 123.995L105.708 127.929L104.885 128.765L100.927 128.782Z" fill="#43FF66"/>
<path d="M105.691 68.735H104.36L104.342 66.2454L100.157 70.4412L99.2108 69.5011L103.396 65.3053L100.892 65.3227L100.875 63.9995L104.832 63.9821L105.673 64.8004L105.691 68.735Z" fill="#43FF66"/>
<path d="M105.673 75.5076L104.342 75.525L104.325 73.0179L100.139 77.2137L99.1933 76.291L103.379 72.0952H100.875L100.857 70.772L104.815 70.7546L105.656 71.5729L105.673 75.5076Z" fill="#43FF66"/>
<path d="M105.656 82.2975H104.325L104.307 79.8078L100.122 84.0037L99.1758 83.0635L103.361 78.8677L100.857 78.8851L100.84 77.5445L104.798 77.5271L105.638 78.3628L105.656 82.2975Z" fill="#43FF66"/>
<path d="M105.638 89.07H104.307L104.29 86.5804L100.104 90.7762L99.1583 89.8535L103.344 85.6402L100.84 85.6576L100.822 84.3345L104.78 84.3171L105.621 85.1353L105.638 89.07Z" fill="#43FF66"/>
<path d="M105.621 95.8426L104.29 95.86L104.272 93.3529L100.086 97.5662L99.1408 96.626L103.326 92.4302H100.822L100.805 91.107L104.762 91.0896L105.603 91.9079L105.621 95.8426Z" fill="#43FF66"/>
<path d="M199.91 112.225H201.241V114.715L205.444 110.537L206.39 111.477L202.187 115.655H204.691V116.978H200.733L199.91 116.16V112.225Z" fill="#43FF66"/>
<path d="M199.91 105.662H201.241V108.169L205.444 103.973L206.39 104.913L202.187 109.092H204.691V110.432H200.733L199.91 109.597V105.662Z" fill="#43FF66"/>
<path d="M199.91 99.1157H201.241V101.605L205.444 97.4269L206.39 98.367L202.187 102.545H204.691V103.869H200.733L199.91 103.05V99.1157Z" fill="#43FF66"/>
<path d="M199.91 92.552H201.241V95.0417L205.444 90.8633L206.39 91.8034L202.187 95.9818H204.691V97.3224H200.733L199.91 96.4867V92.552Z" fill="#43FF66"/>
<path d="M170.051 122.201L170.891 123.02V126.954H169.543V124.465L165.34 128.643L164.394 127.703L168.597 123.525H166.093V122.201H170.051Z" fill="#43FF66"/>
<path d="M164.306 127.703L163.483 128.539H159.525V127.198H162.03L157.827 123.02L158.772 122.08L162.975 126.258V123.768H164.306V127.703Z" fill="#43FF66"/>
<path d="M163.799 129.932V131.255H161.294L165.497 135.433L164.552 136.373L160.349 132.195V134.684H159V130.75L159.841 129.932H163.799Z" fill="#43FF66"/>
<path d="M165.585 131.498H166.916V133.988L171.119 129.81L172.065 130.75L167.862 134.928H170.366V136.269H166.408L165.585 135.433V131.498Z" fill="#43FF66"/>
<path d="M164.026 116.16L163.203 116.996H159.245V115.673H161.75L157.546 111.477L158.492 110.554L162.695 114.732V112.225H164.026V116.16Z" fill="#43FF66"/>
<path d="M164.026 109.614L163.203 110.432H159.245V109.109H161.75L157.546 104.931L158.492 103.99L162.695 108.169V105.679H164.026V109.614Z" fill="#43FF66"/>
<path d="M164.026 103.05L163.203 103.886H159.245V102.563H161.75L157.546 98.367L158.492 97.4269L162.695 101.623V99.1156H164.026V103.05Z" fill="#43FF66"/>
<path d="M164.026 96.5041L163.203 97.3224H159.245V95.9992H161.75L157.546 91.8208L158.492 90.8807L162.695 95.0591V92.5694H164.026V96.5041Z" fill="#43FF66"/>
<path d="M288.613 124.674H289.944V127.163L294.147 122.985L295.093 123.925L290.89 128.103H293.394V129.444H289.436L288.613 128.608V124.674Z" fill="#43FF66"/>
<path d="M290.19 122.985V121.662H292.711L288.491 117.483L289.436 116.543L293.657 120.722V118.232H294.988V122.167L294.147 122.985L290.19 122.985Z" fill="#43FF66"/>
<path d="M290.312 109.962V108.639H292.834L288.631 104.461L289.577 103.52L293.78 107.699V105.209H295.111V109.144L294.288 109.962H290.312Z" fill="#43FF66"/>
<path d="M290.4 103.155V101.832H292.904L288.701 97.6532L289.647 96.713L293.85 100.891V98.4018H295.181V102.337L294.358 103.155H290.4Z" fill="#43FF66"/>
<path d="M290.47 96.3474V95.0243H292.974L288.771 90.8458L289.717 89.9057L293.92 94.0841V91.5945H295.251V95.5292L294.428 96.3474H290.47Z" fill="#43FF66"/>
<path d="M288.456 79.4771H289.787V81.9841L293.99 77.8057L294.936 78.7284L290.732 82.9243H293.237V84.2474H289.279L288.456 83.4117V79.4771Z" fill="#43FF66"/>
<path d="M289.997 77.8405V76.5174H292.501L288.298 72.3389L289.244 71.3988L293.447 75.5772V73.0876H294.795V77.0222L293.955 77.8405H289.997Z" fill="#43FF66"/>
<path d="M290.505 62.6067V61.2835H293.009L288.806 57.1051L289.752 56.165L293.955 60.3434V57.8363H295.303V61.771L294.463 62.6067H290.505Z" fill="#43FF66"/>
<path d="M290.575 55.7993V54.4762H293.079L288.876 50.2977L289.822 49.3576L294.025 53.536V51.029H295.373V54.9636L294.533 55.7993H290.575Z" fill="#43FF66"/>
<path d="M290.645 48.992V47.6688H293.149L288.946 43.4904L289.892 42.5503L294.095 46.7287V44.2216H295.443V48.1737L294.603 48.992H290.645Z" fill="#43FF66"/>
<path d="M290.715 42.1847V40.8615H293.237L289.016 36.6831L289.962 35.7429L294.165 39.9214V37.4317H295.513V41.3664L294.673 42.1847H290.715Z" fill="#43FF66"/>
<path d="M188.194 115.882L187.354 116.7H183.396V115.377H185.9L181.697 111.198L182.643 110.258L186.846 114.437V111.929H188.194V115.882Z" fill="#43FF66"/>
<path d="M187.318 103.816L188.159 104.652V108.587H186.828V106.08L182.625 110.258L181.679 109.318L185.882 105.14H183.361V103.816H187.318Z" fill="#43FF66"/>
<path d="M182.38 90.4106L181.557 89.5923V85.6577H182.888V88.1473L187.091 83.9689L188.036 84.909L183.833 89.0874H186.338V90.4106H182.38Z" fill="#43FF66"/>
<path d="M181.557 91.2289L182.38 90.3932H186.338V91.7338H183.833L188.036 95.9122L187.091 96.8523L182.888 92.6739V95.1636H181.557V91.2289Z" fill="#43FF66"/>
<path d="M182.415 103.277L181.574 102.458V98.5237H182.923V101.013L187.126 96.8349L188.072 97.7751L183.868 101.953H186.373V103.277H182.415Z" fill="#43FF66"/>
</svg>
