<svg width="59" height="59" viewBox="0 0 59 59" fill="none" xmlns="http://www.w3.org/2000/svg">
<path d="M58.1061 19.4879H43.5348L33.3439 7.95609C33.9697 7.1516 34.4166 6.07879 34.4166 4.9167C34.4166 2.23491 32.1819 0 29.5001 0C26.8183 0 24.5834 2.23491 24.5834 4.9167C24.5834 6.07879 25.0304 7.1516 25.6561 7.95609L15.4652 19.4879H0.893891C0.357485 19.4879 0 19.8455 0 20.3818V58.106C0 58.6424 0.357604 58.9999 0.893891 58.9999H58.106C58.6424 58.9999 58.9999 58.6423 58.9999 58.106V20.3819C59 19.8455 58.6424 19.4879 58.1061 19.4879ZM29.5001 1.7879C31.288 1.7879 32.6289 3.2182 32.6289 4.9167C32.6289 6.6152 31.288 8.04549 29.5001 8.04549C27.7122 8.04549 26.3713 6.6152 26.3713 4.9167C26.3713 3.2182 27.7122 1.7879 29.5001 1.7879ZM26.997 9.11819C28.606 10.0121 30.4834 10.0121 32.0924 9.11819L41.1212 19.4879H17.8788L26.997 9.11819ZM57.2121 57.2121H1.7879V21.2758H13.8561L9.83339 25.8349H8.13489C7.59849 25.8349 7.241 26.1925 7.241 26.7287C7.241 27.265 7.59861 27.6226 8.13489 27.6226H13.4092C13.9456 27.6226 14.3031 27.265 14.3031 26.7287C14.3031 26.1925 13.9455 25.8349 13.4092 25.8349H12.2471L16.2698 21.2758H42.7304L46.7531 25.8349H45.5909C45.0545 25.8349 44.697 26.1925 44.697 26.7287C44.697 27.265 45.0546 27.6226 45.5909 27.6226H50.9545C51.4909 27.6226 51.8484 27.265 51.8484 26.7287C51.8484 26.1925 51.4908 25.8349 50.9545 25.8349H49.1666L45.1439 21.2758H57.2121V57.2121Z" fill="#42FF66"/>
<path d="M13.2305 36.0257L18.4154 42.9091H20.829V32.0031H18.4154V38.9757L13.0517 32.0031H10.7275V42.9091H13.2305V36.0257Z" fill="#42FF66"/>
<path d="M31.4667 40.7636H25.9243V38.4394H30.7516V36.3833H25.9243V34.1486H31.2879V32.0031H23.5107V42.9091H31.4667V40.7636Z" fill="#42FF66"/>
<path d="M43.4457 38.2606L41.5685 32.0031H38.976L37.0988 38.2606L34.9533 32.0031H32.2715L36.1154 42.9091H37.9033L40.2276 35.3106L42.6412 42.9091H44.4291L48.2729 32.0031H45.5912L43.4457 38.2606Z" fill="#42FF66"/>
<path d="M46.3957 47.0212H12.6048C12.0684 47.0212 11.7109 47.3788 11.7109 47.9151C11.7109 48.4514 12.0685 48.809 12.6048 48.809H46.3958C46.9322 48.809 47.2897 48.4514 47.2897 47.9151C47.2897 47.3788 46.9321 47.0212 46.3957 47.0212Z" fill="#42FF66"/>
<path d="M46.3957 52.0273H12.6048C12.0684 52.0273 11.7109 52.3849 11.7109 52.9212C11.7109 53.4575 12.0685 53.8151 12.6048 53.8151H46.3958C46.9322 53.8151 47.2897 53.4575 47.2897 52.9212C47.2897 52.3849 46.9321 52.0273 46.3957 52.0273Z" fill="#42FF66"/>
</svg>
