<svg width="471" height="238" viewBox="0 0 471 238" fill="none" xmlns="http://www.w3.org/2000/svg">
<path d="M15.4926 116.75H85.94V94.5158H41.3736H38.961L40.6662 92.809L116.253 17.1502L100.529 1.4148L24.943 77.0725L23.2356 78.7816V76.3657V31.7671H0.999748V102.247L15.4926 116.75Z" stroke="#00E8FF" stroke-width="2"/>
<path d="M118.667 87.9889H140.903V43.3903V40.9749L142.61 42.6835L218.215 118.341L233.939 102.606L158.333 26.9471L156.628 25.2402H159.041H203.607V3.00562H133.178L118.685 17.5089L118.667 87.9889Z" stroke="#00E8FF" stroke-width="2"/>
<path d="M251.14 116.75H321.588V94.5158H277.021H274.608L276.314 92.809L351.919 17.1505L336.177 1.41442L260.591 77.0725L258.883 78.7816V76.3657V31.7671H236.647V102.247L251.14 116.75Z" stroke="#00E8FF" stroke-width="2"/>
<path d="M354.333 17.5088V87.9889H376.55V43.3903V40.9749L378.258 42.6835L453.862 118.341L469.586 102.606L393.981 26.9471L392.275 25.2402H394.688H439.255V3.00562H368.826L354.333 17.5088Z" stroke="#00E8FF" stroke-width="2"/>
<mask id="path-5-inside-1" fill="white">
<path d="M368.448 237.507L444.76 161.159V206.758H468.978V134.845L453.899 119.756H382.037V144.009H427.604L351.31 220.357"/>
</mask>
<path d="M444.76 161.159L443.345 159.745L446.76 156.329V161.159H444.76ZM444.76 206.758V208.758H442.76V206.758H444.76ZM468.978 206.758H470.978V208.758H468.978V206.758ZM468.978 134.845L470.392 133.432L470.978 134.017V134.845H468.978ZM453.899 119.756V117.756H454.728L455.314 118.343L453.899 119.756ZM382.037 119.756H380.037V117.756H382.037V119.756ZM382.037 144.009V146.009H380.037V144.009H382.037ZM427.604 144.009V142.009H432.43L429.018 145.423L427.604 144.009ZM367.034 236.093L443.345 159.745L446.175 162.573L369.863 238.921L367.034 236.093ZM446.76 161.159V206.758H442.76V161.159H446.76ZM444.76 204.758H468.978V208.758H444.76V204.758ZM466.978 206.758V134.845H470.978V206.758H466.978ZM467.563 136.259L452.484 121.17L455.314 118.343L470.392 133.432L467.563 136.259ZM453.899 121.756H382.037V117.756H453.899V121.756ZM384.037 119.756V144.009H380.037V119.756H384.037ZM382.037 142.009H427.604V146.009H382.037V142.009ZM429.018 145.423L352.725 221.77L349.896 218.943L426.189 142.596L429.018 145.423Z" fill="#00E8FF" mask="url(#path-5-inside-1)"/>
<path d="M236.647 133.272V203.752H258.883V159.153V156.738L260.591 158.447L336.177 234.105L351.919 218.369L276.314 142.71L274.608 141.003H277.021H321.588V118.75H251.159L236.647 133.272Z" stroke="#00E8FF" stroke-width="2"/>
</svg>
