<svg width="59" height="59" viewBox="0 0 59 59" fill="none" xmlns="http://www.w3.org/2000/svg">
<g clip-path="url(#clip0)">
<path d="M52.8542 59H6.14583C2.75825 59 0 56.2418 0 52.8542C0 49.4666 2.75825 46.7084 6.14583 46.7084H52.8542C56.2417 46.7084 59 49.4666 59 52.8542C59 56.2418 56.2417 59 52.8542 59ZM6.14583 49.1667C4.11279 49.1667 2.45833 50.8212 2.45833 52.8542C2.45833 54.8872 4.11279 56.5417 6.14583 56.5417H52.8542C54.8872 56.5417 56.5417 54.8872 56.5417 52.8542C56.5417 50.8212 54.8872 49.1667 52.8542 49.1667H6.14583Z" fill="#42FF66"/>
<path d="M52.8535 49.1667C52.7969 49.1667 52.7379 49.1642 52.6789 49.1544C52.0078 49.0585 51.5407 48.4366 51.6366 47.763L56.1845 15.9399L42.4375 24.399C42.1499 24.5735 41.8032 24.6276 41.4812 24.5416C41.1567 24.4555 40.8814 24.2417 40.7167 23.9491L29.4993 3.76129L18.2819 23.9516C18.1196 24.2466 17.8443 24.4604 17.5174 24.544C17.1953 24.6301 16.8487 24.576 16.5611 24.4014L2.81651 15.9399L7.36443 47.763C7.4603 48.4341 6.99322 49.0585 6.32209 49.1544C5.63622 49.2503 5.02655 48.7832 4.93068 48.1121L0.0140076 13.6954C-0.0523674 13.2234 0.159049 12.7563 0.5573 12.4933C0.958008 12.2327 1.46934 12.2253 1.87743 12.4736L16.7577 21.6334L28.425 0.631832C28.8576 -0.14746 30.1409 -0.14746 30.5736 0.631832L42.2408 21.6334L57.126 12.4736C57.5317 12.2229 58.0455 12.2302 58.4462 12.4933C58.8444 12.7539 59.0558 13.2234 58.9895 13.6954L54.0728 48.1121C53.9818 48.7242 53.4582 49.1667 52.8535 49.1667Z" fill="#42FF66"/>
<path d="M29.5 41.7917C29.1141 41.7917 28.7478 41.6098 28.5167 41.3001L24.8292 36.3834C24.5022 35.9458 24.5022 35.346 24.8292 34.9084L28.5167 29.9917C28.9789 29.3722 30.0188 29.3722 30.4834 29.9917L34.1709 34.9084C34.4978 35.346 34.4978 35.9458 34.1709 36.3834L30.4834 41.3001C30.2523 41.6098 29.886 41.7917 29.5 41.7917ZM27.349 35.6459L29.5 38.5148L31.6511 35.6459L29.5 32.777L27.349 35.6459Z" fill="#42FF66"/>
<path d="M14.75 41.7917C14.3641 41.7917 13.9978 41.6098 13.7667 41.3001L10.0792 36.3834C9.75224 35.9458 9.75224 35.346 10.0792 34.9084L13.7667 29.9917C14.2289 29.3722 15.2687 29.3722 15.7334 29.9917L19.4209 34.9084C19.7478 35.346 19.7478 35.9458 19.4209 36.3834L15.7334 41.3001C15.5023 41.6098 15.136 41.7917 14.75 41.7917ZM12.599 35.6459L14.75 38.5148L16.9011 35.6459L14.75 32.777L12.599 35.6459Z" fill="#42FF66"/>
<path d="M44.25 41.7917C43.8641 41.7917 43.4978 41.6098 43.2667 41.3001L39.5792 36.3834C39.2522 35.9458 39.2522 35.346 39.5792 34.9084L43.2667 29.9917C43.7289 29.3722 44.7688 29.3722 45.2334 29.9917L48.9209 34.9084C49.2478 35.346 49.2478 35.9458 48.9209 36.3834L45.2334 41.3001C45.0023 41.6098 44.636 41.7917 44.25 41.7917ZM42.099 35.6459L44.25 38.5148L46.4011 35.6459L44.25 32.777L42.099 35.6459Z" fill="#42FF66"/>
</g>
<defs>
<clipPath id="clip0">
<rect width="59" height="59" fill="white"/>
</clipPath>
</defs>
</svg>
