<svg width="59" height="59" viewBox="0 0 59 59" fill="none" xmlns="http://www.w3.org/2000/svg">
<g clip-path="url(#clip0)">
<path d="M24.0418 0.288857C23.7791 0.024223 23.3886 -0.0675102 23.0356 0.051599L6.91988 5.42304L1.92546 0.428138C1.53932 0.0554412 0.925999 0.0607243 0.546579 0.440145C0.167159 0.819565 0.161876 1.43336 0.534572 1.81903L5.52803 6.81393L0.156593 22.9292C0.0394049 23.2827 0.131138 23.6722 0.394811 23.9359L35.1704 58.7124C35.5546 59.0962 36.177 59.0962 36.5612 58.7124L58.8183 36.4548C59.2025 36.0711 59.2025 35.4482 58.8183 35.0644L24.0418 0.288857ZM35.8658 56.6261L2.21363 22.9748L7.08221 8.36907L10.8956 12.1825C9.50378 14.2885 9.93219 17.1073 11.8879 18.7037C13.8436 20.3006 16.6907 20.1575 18.4763 18.3718C20.2615 16.5866 20.4047 13.7396 18.8082 11.7839C17.2113 9.82816 14.393 9.39927 12.2865 10.7916L8.47502 6.97818L23.0808 2.10719L56.732 35.7565L35.8658 56.6261ZM14.3051 15.5896C14.6908 15.9623 15.3046 15.957 15.684 15.5776C16.0634 15.1982 16.0687 14.5848 15.696 14.1987L13.7374 12.2387C14.8603 11.6912 16.2075 11.9193 17.0879 12.8059C18.1637 13.8659 18.2698 15.5656 17.3338 16.7509C16.3977 17.9358 14.7196 18.2268 13.4392 17.4252C12.1592 16.6236 11.6876 14.9873 12.3446 13.6277L14.3051 15.5896Z" fill="#42FF66"/>
</g>
<defs>
<clipPath id="clip0">
<rect width="59" height="59" fill="white"/>
</clipPath>
</defs>
</svg>
