<svg width="441" height="371" viewBox="0 0 441 371" fill="none" xmlns="http://www.w3.org/2000/svg">
<path d="M427.256 300.899L416.379 290.032V294.267H379.884L440.969 355.299L427.256 369L366.171 307.968V344.431H360.935L371.812 355.299L358.099 369L297.014 307.968V344.431H291.778L302.655 355.299L288.942 369L227.856 307.968V344.431H222.621L233.498 355.299L219.785 369L158.699 307.968V344.431H153.464L164.34 355.299L150.627 369L89.5423 307.968V344.431H84.3064L95.1833 355.299L81.4703 369L20.3852 307.968V344.431H1V286.949L11.6276 276.33H1V218.848L13.0923 206.766H70.1883V152.647L20.4163 102.918V139.381H1.03116V81.899L13.1235 69.8171H70.6558V89.1855H34.1605L82.9351 137.918H139.377V81.8678L151.344 69.8171H208.876V81.4319L220.501 69.8171H277.597V13.0508L289.69 1H347.222V12.6148L358.847 1H416.379V20.3684H379.884L440.969 81.4007L427.256 95.1019L416.379 84.2344V89.1855H379.884L440.969 150.218L427.256 163.919L416.379 153.051V157.317H379.884L441 218.35L427.287 232.051L416.41 221.183V226.135H379.915L441 287.167L427.256 300.899ZM346.786 157.317H310.727L346.786 193.345V157.317ZM277.597 226.135H241.538L277.597 262.162V226.135ZM297.014 239.867V274.898H332.044L297.014 239.867ZM227.825 239.867V274.898H262.887L227.825 239.867ZM208.44 226.135H172.381L208.44 262.162V226.135ZM158.668 239.867V274.898H193.699L158.668 239.867ZM139.252 226.135H103.193L139.252 262.162V226.135ZM89.4799 239.867V274.898H124.542L89.4799 239.867ZM89.4799 206.766H125.227L89.4799 171.019V206.766ZM158.668 171.019V206.735H194.416L158.668 171.019ZM208.44 193.345V157.317H172.381L208.44 193.345ZM227.825 171.019V206.735H263.573L227.825 171.019ZM277.597 193.345V157.317H241.538L277.597 193.345ZM297.014 171.019V206.735H332.761L297.014 171.019ZM346.786 226.135H310.727L346.786 262.162V226.135ZM346.786 330.263V294.235H310.727L346.786 330.263ZM277.597 330.263V294.267H241.538L277.597 330.263ZM208.44 330.263V294.235H172.381L208.44 330.263ZM139.252 330.263V294.235H103.193L139.252 330.263ZM70.0948 330.263V294.235H34.0358L70.0948 330.263ZM20.3229 274.867H55.3845L20.3229 239.836V274.867ZM70.0948 262.162V226.135H34.0358L70.0948 262.162ZM139.252 193.345V157.317H103.193L139.252 193.345ZM158.668 137.949H193.699L158.637 102.918L158.668 137.949ZM208.44 125.213V89.1855H172.381L208.44 125.213ZM227.825 137.949H262.887L227.825 102.918V137.949ZM278.034 70.5644V89.2166H241.538L290.313 137.949H346.754V83.8296L296.982 34.1007V70.5644H278.034ZM346.786 56.3962V20.3684H310.727L346.786 56.3962ZM401.918 69.8171L366.171 34.1007V69.8171H401.918ZM401.232 137.949L366.171 102.918V137.949H401.232ZM401.918 206.766L366.171 171.019V206.735L401.918 206.766ZM366.171 239.867V274.898H401.232L366.171 239.867Z" stroke="#00E7FF" stroke-width="2" stroke-miterlimit="10"/>
</svg>
